<svg width="1440" height="1029" viewBox="0 0 1440 1029" fill="none" xmlns="http://www.w3.org/2000/svg">
<g clip-path="url(#clip0_75_503)" filter="url(#filter0_i_75_503)">
<path d="M174.866 282.237L-36.2524 66.3194L132.464 25.2588L206.224 161.082L174.866 282.237Z" stroke="#E19653" stroke-width="0.5" stroke-miterlimit="10"/>
<path d="M600.808 144.942L574.459 326.422L419.358 398.773L174.866 282.237L206.224 161.082L600.808 144.942Z" stroke="#E19653" stroke-width="0.5" stroke-miterlimit="10"/>
<path d="M871.203 820.416L1059.99 713.06L600.808 144.942L574.459 326.422L871.203 820.416Z" stroke="#E19653" stroke-width="0.5" stroke-miterlimit="10"/>
<path d="M1308.88 1018.1L871.202 820.416L1059.99 713.061L1308.88 1018.1Z" stroke="#E19653" stroke-width="0.5" stroke-miterlimit="10"/>
<path d="M1479.37 538.722L1312.69 675.655L1059.99 713.061L600.808 144.943L788.413 7.28613" stroke="#E19653" stroke-width="0.5" stroke-miterlimit="10"/>
<g opacity="0.7">
<path d="M128.142 36.7907C134.162 36.7907 139.042 31.914 139.042 25.8983C139.042 19.8826 134.162 15.0059 128.142 15.0059C122.123 15.0059 117.243 19.8826 117.243 25.8983C117.243 31.914 122.123 36.7907 128.142 36.7907Z" fill="#E19653"/>
</g>
<g opacity="0.7">
<path d="M206.224 171.974C212.244 171.974 217.123 167.098 217.123 161.082C217.123 155.066 212.244 150.189 206.224 150.189C200.204 150.189 195.325 155.066 195.325 161.082C195.325 167.098 200.204 171.974 206.224 171.974Z" fill="#E19653"/>
</g>
<g opacity="0.7">
<path d="M175.337 293.576C181.356 293.576 186.236 288.699 186.236 282.683C186.236 276.668 181.356 271.791 175.337 271.791C169.317 271.791 164.437 276.668 164.437 282.683C164.437 288.699 169.317 293.576 175.337 293.576Z" fill="#E19653"/>
</g>
<g opacity="0.7">
<path d="M419.358 409.666C425.377 409.666 430.257 404.789 430.257 398.773C430.257 392.758 425.377 387.881 419.358 387.881C413.338 387.881 408.458 392.758 408.458 398.773C408.458 404.789 413.338 409.666 419.358 409.666Z" fill="#E19653"/>
</g>
<path d="M569.908 337.073C575.928 337.073 580.807 332.196 580.807 326.18C580.807 320.165 575.928 315.288 569.908 315.288C563.889 315.288 559.009 320.165 559.009 326.18C559.009 332.196 563.889 337.073 569.908 337.073Z" fill="#E19653"/>
<g opacity="0.7">
<path d="M871.202 831.308C877.222 831.308 882.101 826.432 882.101 820.416C882.101 814.4 877.222 809.523 871.202 809.523C865.182 809.523 860.303 814.4 860.303 820.416C860.303 826.432 865.182 831.308 871.202 831.308Z" fill="#E19653"/>
</g>
<g opacity="0.7">
<path d="M601.29 159.104C607.31 159.104 612.19 154.227 612.19 148.212C612.19 142.196 607.31 137.319 601.29 137.319C595.271 137.319 590.391 142.196 590.391 148.212C590.391 154.227 595.271 159.104 601.29 159.104Z" fill="#E19653"/>
</g>
<g opacity="0.7">
<path d="M1059.65 727.282C1065.67 727.282 1070.55 722.405 1070.55 716.39C1070.55 710.374 1065.67 705.497 1059.65 705.497C1053.63 705.497 1048.75 710.374 1048.75 716.39C1048.75 722.405 1053.63 727.282 1059.65 727.282Z" fill="#E19653"/>
</g>
<g opacity="0.7">
<path d="M1308.88 1028.99C1314.9 1028.99 1319.78 1024.11 1319.78 1018.1C1319.78 1012.08 1314.9 1007.2 1308.88 1007.2C1302.86 1007.2 1297.98 1012.08 1297.98 1018.1C1297.98 1024.11 1302.86 1028.99 1308.88 1028.99Z" fill="#E19653"/>
</g>
<g opacity="0.7">
<path d="M1311.68 685.823C1317.7 685.823 1322.58 680.946 1322.58 674.931C1322.58 668.915 1317.7 664.038 1311.68 664.038C1305.66 664.038 1300.78 668.915 1300.78 674.931C1300.78 680.946 1305.66 685.823 1311.68 685.823Z" fill="#E19653"/>
</g>
<g opacity="0.7">
<path d="M788.486 21.7848C794.505 21.7848 799.385 16.9081 799.385 10.8924C799.385 4.87669 794.505 0 788.486 0C782.466 0 777.586 4.87669 777.586 10.8924C777.586 16.9081 782.466 21.7848 788.486 21.7848Z" fill="#E19653"/>
</g>
<g opacity="0.7">
<path d="M128.142 33.6063C132.402 33.6063 135.855 30.1553 135.855 25.8983C135.855 21.6414 132.402 18.1904 128.142 18.1904C123.883 18.1904 120.43 21.6414 120.43 25.8983C120.43 30.1553 123.883 33.6063 128.142 33.6063Z" fill="white"/>
</g>
<g opacity="0.7">
<path d="M206.224 168.79C210.483 168.79 213.937 165.339 213.937 161.082C213.937 156.825 210.483 153.374 206.224 153.374C201.964 153.374 198.511 156.825 198.511 161.082C198.511 165.339 201.964 168.79 206.224 168.79Z" fill="white"/>
</g>
<g opacity="0.7">
<path d="M175.337 290.391C179.596 290.391 183.049 286.94 183.049 282.683C183.049 278.427 179.596 274.976 175.337 274.976C171.077 274.976 167.624 278.427 167.624 282.683C167.624 286.94 171.077 290.391 175.337 290.391Z" fill="white"/>
</g>
<g opacity="0.7">
<path d="M419.358 405.709C423.191 405.709 426.298 402.603 426.298 398.773C426.298 394.942 423.191 391.837 419.358 391.837C415.525 391.837 412.417 394.942 412.417 398.773C412.417 402.603 415.525 405.709 419.358 405.709Z" fill="white"/>
</g>
<path d="M569.908 333.925C574.188 333.925 577.657 330.458 577.657 326.181C577.657 321.904 574.188 318.437 569.908 318.437C565.629 318.437 562.159 321.904 562.159 326.181C562.159 330.458 565.629 333.925 569.908 333.925Z" fill="white"/>
<g opacity="0.7">
<path d="M871.202 828.196C875.502 828.196 878.987 824.713 878.987 820.416C878.987 816.119 875.502 812.636 871.202 812.636C866.903 812.636 863.417 816.119 863.417 820.416C863.417 824.713 866.903 828.196 871.202 828.196Z" fill="white"/>
</g>
<g opacity="0.7">
<path d="M601.29 155.654C605.404 155.654 608.738 152.321 608.738 148.211C608.738 144.101 605.404 140.769 601.29 140.769C597.177 140.769 593.843 144.101 593.843 148.211C593.843 152.321 597.177 155.654 601.29 155.654Z" fill="white"/>
</g>
<g opacity="0.7">
<path d="M1059.65 723.591C1063.63 723.591 1066.86 720.367 1066.86 716.39C1066.86 712.413 1063.63 709.188 1059.65 709.188C1055.67 709.188 1052.45 712.413 1052.45 716.39C1052.45 720.367 1055.67 723.591 1059.65 723.591Z" fill="white"/>
</g>
<g opacity="0.7">
<path d="M1308.88 1025.8C1313.14 1025.8 1316.59 1022.35 1316.59 1018.1C1316.59 1013.84 1313.14 1010.39 1308.88 1010.39C1304.62 1010.39 1301.16 1013.84 1301.16 1018.1C1301.16 1022.35 1304.62 1025.8 1308.88 1025.8Z" fill="white"/>
</g>
<g opacity="0.7">
<path d="M1311.68 682.638C1315.94 682.638 1319.39 679.188 1319.39 674.931C1319.39 670.674 1315.94 667.223 1311.68 667.223C1307.42 667.223 1303.96 670.674 1303.96 674.931C1303.96 679.188 1307.42 682.638 1311.68 682.638Z" fill="white"/>
</g>
<g opacity="0.7">
<path d="M788.486 18.6004C792.745 18.6004 796.199 15.1494 796.199 10.8925C796.199 6.63552 792.745 3.18457 788.486 3.18457C784.226 3.18457 780.773 6.63552 780.773 10.8925C780.773 15.1494 784.226 18.6004 788.486 18.6004Z" fill="white"/>
</g>
</g>
<defs>
<filter id="filter0_i_75_503" x="-46.5" y="0" width="1533" height="1033" filterUnits="userSpaceOnUse" color-interpolation-filters="sRGB">
<feFlood flood-opacity="0" result="BackgroundImageFix"/>
<feBlend mode="normal" in="SourceGraphic" in2="BackgroundImageFix" result="shape"/>
<feColorMatrix in="SourceAlpha" type="matrix" values="0 0 0 0 0 0 0 0 0 0 0 0 0 0 0 0 0 0 127 0" result="hardAlpha"/>
<feOffset dy="4"/>
<feGaussianBlur stdDeviation="2"/>
<feComposite in2="hardAlpha" operator="arithmetic" k2="-1" k3="1"/>
<feColorMatrix type="matrix" values="0 0 0 0 0 0 0 0 0 0 0 0 0 0 0 0 0 0 0.25 0"/>
<feBlend mode="normal" in2="shape" result="effect1_innerShadow_75_503"/>
</filter>
<clipPath id="clip0_75_503">
<rect width="1533" height="1029" fill="white" transform="translate(-46.5)"/>
</clipPath>
</defs>
</svg>
