<svg width="405" height="174" viewBox="0 0 405 174" fill="none" xmlns="http://www.w3.org/2000/svg">
<path d="M202.006 173.056L238.799 0H404.582L395.17 44.2801H290.994L286.288 65.8854H384.046L375.276 107.171H277.517L273.025 128.562H380.196L370.784 173.056H202.006Z" fill="url(#paint0_linear_89_469)"/>
<path d="M87.9185 43.2106L83.2124 65.2437H115.941C129.632 65.2437 137.546 64.388 139.9 53.2645C141.825 43.6384 133.696 43.2106 120.647 43.2106H87.9185ZM0 173.056L36.7932 0H145.889C200.009 0 205.571 22.6748 201.293 43.2106C197.656 60.5376 185.249 71.4472 168.778 77.0089C186.105 81.0733 200.223 94.9777 194.875 120.647C187.602 155.087 158.724 173.056 112.946 173.056H0ZM75.5115 101.823L69.5219 129.632H106.315C121.717 129.632 131.129 128.562 133.91 115.299C136.263 104.818 129.204 101.823 114.658 101.823H75.5115Z" fill="url(#paint1_linear_89_469)"/>
<defs>
<linearGradient id="paint0_linear_89_469" x1="238.59" y1="-16.417" x2="405.996" y2="63.9112" gradientUnits="userSpaceOnUse">
<stop stop-color="#FF9100"/>
<stop offset="1" stop-color="#FFAE00"/>
</linearGradient>
<linearGradient id="paint1_linear_89_469" x1="36.5586" y1="-16.417" x2="203.89" y2="63.8188" gradientUnits="userSpaceOnUse">
<stop stop-color="#FF9100"/>
<stop offset="1" stop-color="#FFAE00"/>
</linearGradient>
</defs>
</svg>
