<svg width="24" height="24" viewBox="0 0 24 24" fill="none" xmlns="http://www.w3.org/2000/svg">
<path d="M18.7358 2.46387C18.9509 2.36396 19.3105 2.26342 19.6577 2.47168C19.9775 2.66465 20.0695 2.99675 20.1011 3.17383C20.1518 3.45307 20.1307 3.801 20.0933 4.12598L20.0522 4.44043L19.978 4.92578C19.9372 5.18866 19.8988 5.43331 19.8745 5.66602C19.8607 5.78814 19.8542 5.91128 19.855 6.03418V6.06836L19.8765 6.0957C20.6742 7.09336 21.1499 8.28294 21.1499 9.57227C21.1499 11.4152 20.3246 13.2882 18.7017 14.5029C18.0167 15.0156 17.2061 15.3995 16.3286 15.6719L16.2153 15.707L16.269 15.8125C16.5099 16.2873 16.646 16.7629 16.646 17.2354V21C16.646 21.1719 16.5778 21.3372 16.4565 21.459C16.335 21.5808 16.1696 21.6499 15.9976 21.6504H9.50146C9.14269 21.6504 8.85107 21.3588 8.85107 21L8.8501 19.5625V19.4629H7.4126C6.42926 19.4627 5.61465 18.7733 5.08252 18.1895V18.1885C4.66279 17.7294 4.32741 17.234 4.11572 16.9004L3.94678 16.6279L3.94482 16.624L3.85889 16.5107C3.82629 16.476 3.78932 16.4442 3.74561 16.417C3.6588 16.3631 3.55282 16.3302 3.42139 16.3145C3.25017 16.2935 3.0941 16.2052 2.98779 16.0693C2.88155 15.9335 2.83319 15.761 2.854 15.5898C2.87491 15.4187 2.96332 15.2626 3.09912 15.1562C3.23492 15.05 3.40746 15.0016 3.57861 15.0225C4.20707 15.0991 4.72557 15.406 5.05518 15.9492C5.21722 16.2153 5.57431 16.7987 6.04346 17.3125C6.29513 17.5881 6.53945 17.7997 6.76807 17.9424C6.99542 18.0842 7.21388 18.162 7.4126 18.1621H8.85107V17.2061C8.85627 16.758 8.97334 16.3175 9.19092 15.9258L9.25244 15.8154L9.13037 15.7812C8.14125 15.505 7.23116 15.0844 6.45361 14.5029C4.86199 13.3115 3.8501 11.4539 3.8501 9.57227C3.85013 8.31143 4.30481 7.14478 5.07275 6.16016L5.09424 6.13281V6.09863C5.10639 6.00247 5.11344 5.86431 5.1167 5.68652C5.11872 5.56352 5.11865 5.40411 5.11865 5.23242L5.12842 4.40527C5.14244 3.97919 5.18092 3.4687 5.33447 3.08496L5.33545 3.08398C5.41258 2.88888 5.55848 2.62746 5.84229 2.47363C6.15817 2.30264 6.48999 2.34127 6.75635 2.4541V2.45508C6.96263 2.54462 7.15588 2.63008 7.33545 2.71289V2.71387C7.68202 2.87875 8.03715 3.0252 8.39893 3.15332L8.40088 3.1543C8.9092 3.32236 9.34744 3.37799 9.76709 3.27148C10.6268 3.05261 11.5468 2.93457 12.5005 2.93457C13.5988 2.93461 14.6502 3.0898 15.6206 3.37695C15.7112 3.40339 15.8713 3.41655 16.1157 3.38574L16.1147 3.38477C16.3522 3.35574 16.6302 3.28828 16.9331 3.19336C17.5394 3.00236 18.1891 2.71823 18.7358 2.46387Z" fill="url(#paint0_linear_36_759)" fill-opacity="0.5" stroke="url(#paint1_linear_36_759)" stroke-width="0.2"/>
<defs>
<linearGradient id="paint0_linear_36_759" x1="7.41375" y1="4.73936" x2="16.9204" y2="20.9703" gradientUnits="userSpaceOnUse">
<stop stop-color="#FFAB7A"/>
<stop offset="1" stop-color="#996900"/>
</linearGradient>
<linearGradient id="paint1_linear_36_759" x1="1.73293" y1="1.49318" x2="19.7029" y2="23.7527" gradientUnits="userSpaceOnUse">
<stop stop-color="#E19653"/>
<stop offset="1" stop-color="white" stop-opacity="0"/>
</linearGradient>
</defs>
</svg>
