<svg width="50" height="50" viewBox="0 0 50 50" fill="none" xmlns="http://www.w3.org/2000/svg">
<rect width="50" height="50" rx="25" fill="white" fill-opacity="0.1"/>
<path d="M18.8115 14.4487H30.7158C31.8725 14.4492 32.9819 14.9092 33.7998 15.7271C34.6177 16.545 35.0776 17.6544 35.0781 18.811V30.7153C35.0781 31.8723 34.6186 32.982 33.8008 33.8003C32.9828 34.6186 31.8729 35.0791 30.7158 35.0796H18.8115C17.6542 35.0796 16.544 34.6196 15.7256 33.8013C14.9072 32.9829 14.4473 31.8727 14.4473 30.7153V18.811C14.4478 17.6541 14.9084 16.545 15.7266 15.7271C16.5449 14.909 17.6545 14.4488 18.8115 14.4487ZM24.7637 19.3833C23.3368 19.3833 21.9679 19.9505 20.959 20.9595C19.9503 21.9683 19.3838 23.3366 19.3838 24.7632C19.3838 26.19 19.9501 27.5589 20.959 28.5679C21.9679 29.5768 23.3368 30.1431 24.7637 30.1431C26.1905 30.1431 27.5594 29.5768 28.5684 28.5679C29.5772 27.5589 30.1436 26.19 30.1436 24.7632C30.1435 23.3366 29.577 21.9683 28.5684 20.9595C27.5594 19.9505 26.1905 19.3833 24.7637 19.3833ZM24.7656 21.2974C25.6847 21.2974 26.5659 21.6631 27.2158 22.313C27.8657 22.9629 28.2314 23.8441 28.2314 24.7632C28.2314 25.6823 27.8658 26.5644 27.2158 27.2144C26.566 27.8641 25.6846 28.2289 24.7656 28.229C23.8465 28.229 22.9644 27.8643 22.3145 27.2144C21.6645 26.5644 21.2998 25.6823 21.2998 24.7632C21.2999 23.8442 21.6647 22.9629 22.3145 22.313C22.9644 21.663 23.8465 21.2974 24.7656 21.2974ZM30.7139 17.4321C30.3465 17.4321 29.9942 17.5786 29.7344 17.8384C29.4746 18.0982 29.3282 18.4505 29.3281 18.8179C29.3281 19.1854 29.4745 19.5385 29.7344 19.7983C29.9942 20.058 30.3465 20.2036 30.7139 20.2036C31.0812 20.2036 31.4335 20.058 31.6934 19.7983C31.9532 19.5385 32.0996 19.1854 32.0996 18.8179C32.0995 18.4505 31.9531 18.0982 31.6934 17.8384C31.4335 17.5787 31.0813 17.4321 30.7139 17.4321Z" fill="url(#paint0_linear_241_1222)" fill-opacity="0.5" stroke="url(#paint1_linear_241_1222)" stroke-width="0.2"/>
<defs>
<linearGradient id="paint0_linear_241_1222" x1="13.617" y1="15.6864" x2="36.5068" y2="36.3381" gradientUnits="userSpaceOnUse">
<stop stop-color="#FFAB7A"/>
<stop offset="1" stop-color="#996900"/>
</linearGradient>
<linearGradient id="paint1_linear_241_1222" x1="10.793" y1="11.642" x2="35.5836" y2="35.9819" gradientUnits="userSpaceOnUse">
<stop stop-color="#E19653"/>
<stop offset="1" stop-color="white" stop-opacity="0"/>
</linearGradient>
</defs>
</svg>
