<svg width="50" height="50" viewBox="0 0 50 50" fill="none" xmlns="http://www.w3.org/2000/svg">
<rect width="50" height="50" rx="25" fill="white" fill-opacity="0.1"/>
<path d="M25 15.5933C30.9344 15.5933 35.7002 19.3838 35.7002 24.0103C35.7 28.6365 30.9343 32.4263 25 32.4263C24.3485 32.4263 23.7121 32.3817 23.0947 32.2925L23.0547 32.2866L23.0225 32.3091C22.7114 32.5284 21.6565 33.2701 20.6367 33.9624C20.1268 34.3086 19.6263 34.6423 19.2324 34.8921C19.0355 35.017 18.8664 35.1205 18.7363 35.1938C18.6712 35.2306 18.6163 35.259 18.5742 35.2788C18.5535 35.2885 18.5366 35.2954 18.5234 35.3003C18.5169 35.3027 18.5116 35.3051 18.5078 35.3062C18.5042 35.3072 18.502 35.3071 18.502 35.3071L18.4912 35.3091L18.4814 35.313V35.312C18.4811 35.3121 18.4805 35.3126 18.4795 35.313C18.4771 35.3137 18.4731 35.3155 18.4678 35.3169C18.457 35.3197 18.4412 35.323 18.4229 35.3247C18.3847 35.3283 18.3425 35.3244 18.3066 35.3042C18.2853 35.2922 18.27 35.2656 18.2627 35.2231C18.2594 35.2038 18.2586 35.1853 18.2588 35.1714C18.2589 35.1648 18.2585 35.1592 18.2588 35.1558C18.2589 35.1541 18.2597 35.1524 18.2598 35.1519L18.2588 35.1509C18.2691 35.0902 18.3306 34.8615 18.4219 34.5308C18.514 34.1971 18.6347 33.7689 18.7598 33.3306C19.0101 32.4536 19.2758 31.5358 19.3584 31.2485L19.3818 31.1685L19.3066 31.1313C16.29 29.6396 14.2999 26.9996 14.2998 24.0063C14.2998 19.38 19.0656 15.5933 25 15.5933ZM17.4287 21.3638C17.0379 21.3659 16.7218 21.6834 16.7217 22.0747C16.7217 22.4674 17.0399 22.7866 17.4326 22.7866H18.3037V26.3872C18.3037 26.7768 18.6344 27.0835 19.0264 27.0835C19.4184 27.0835 19.749 26.7768 19.749 26.3872V22.7866H20.6201C21.0128 22.7866 21.3311 22.4674 21.3311 22.0747C21.3309 21.6821 21.0128 21.3638 20.6201 21.3638H17.4287ZM22.7109 21.3638C22.3131 21.3711 21.9948 21.6338 21.8438 21.9214L21.79 22.0435L20.3018 25.9653L20.2998 25.9712C20.2032 26.2746 20.1921 26.4976 20.2383 26.6616C20.2741 26.7885 20.3426 26.8742 20.4199 26.9302L20.499 26.9771C20.6328 27.0397 20.7861 27.0727 20.9385 27.0728C21.2168 27.0728 21.4703 26.9584 21.5508 26.7319L21.5498 26.731L21.833 25.9888H23.5957L23.8789 26.731L23.8799 26.73C23.9611 26.9552 24.2127 27.0688 24.4902 27.0688C24.6434 27.0688 24.7922 27.0351 24.9287 26.9731H24.9297C25.0389 26.9232 25.1455 26.8279 25.1934 26.6587C25.2398 26.4942 25.2276 26.2701 25.1289 25.9663L25.127 25.9614L23.6387 22.0435C23.5218 21.7126 23.172 21.3723 22.7148 21.3638H22.7109ZM29.4961 21.3638C29.0956 21.364 28.7744 21.6905 28.7744 22.0864V26.3501C28.7745 26.7505 29.1002 27.0726 29.4961 27.0728C29.8925 27.0728 30.2186 26.7465 30.2188 26.3501V25.0337L30.3252 24.9263L31.7158 26.77C31.8546 26.9522 32.0638 27.0571 32.2939 27.0571C32.4494 27.0571 32.6023 27.01 32.7295 26.9136L32.7305 26.9126C32.8817 26.7957 32.9816 26.6263 33.0078 26.4351C33.0273 26.2925 33.0053 26.1486 32.9434 26.021L32.8682 25.8989L31.3877 23.936L32.7471 22.5806C32.8662 22.4614 32.9237 22.2983 32.915 22.1265C32.9061 21.9524 32.8261 21.7904 32.7021 21.6665C32.5685 21.5329 32.3861 21.4537 32.2041 21.4536C32.044 21.4536 31.8978 21.5119 31.7881 21.6216L30.2227 23.1899V22.0933C30.2225 21.7151 29.9312 21.4106 29.5654 21.3774L29.5586 21.3638H29.4961ZM26.0723 21.3638C25.67 21.364 25.3389 21.6885 25.3389 22.0864V26.3159C25.3389 26.6904 25.6543 26.9854 26.0342 26.9897H28.0342C28.4159 26.9896 28.7305 26.6894 28.7305 26.3159C28.7303 25.9413 28.4108 25.6461 28.0342 25.646H26.8105V22.0864C26.8105 21.6839 26.4777 21.3638 26.0723 21.3638ZM23.1943 24.686H22.2314L22.7119 23.3198L23.1943 24.686Z" fill="url(#paint0_linear_241_1225)" fill-opacity="0.5" stroke="url(#paint1_linear_241_1225)" stroke-width="0.2"/>
<defs>
<linearGradient id="paint0_linear_241_1225" x1="11.6007" y1="13.4021" x2="32.3741" y2="35.4256" gradientUnits="userSpaceOnUse">
<stop stop-color="#FFAB7A"/>
<stop offset="1" stop-color="#996900"/>
</linearGradient>
<linearGradient id="paint1_linear_241_1225" x1="15.0369" y1="15.4937" x2="31.9055" y2="35.4256" gradientUnits="userSpaceOnUse">
<stop stop-color="#E19653"/>
<stop offset="1" stop-color="white" stop-opacity="0"/>
</linearGradient>
</defs>
</svg>
