<svg width="24" height="24" viewBox="0 0 24 24" fill="none" xmlns="http://www.w3.org/2000/svg">
<path d="M12 2.59375C17.9344 2.59375 22.7002 6.38429 22.7002 11.0107C22.7 15.637 17.9343 19.4268 12 19.4268C11.3485 19.4267 10.7121 19.3822 10.0947 19.293L10.0547 19.2871L10.0225 19.3096C9.71136 19.5288 8.65646 20.2706 7.63672 20.9629C7.12677 21.3091 6.62628 21.6428 6.23242 21.8926C6.03551 22.0175 5.86637 22.121 5.73633 22.1943C5.67119 22.2311 5.61633 22.2595 5.57422 22.2793C5.55353 22.289 5.5366 22.2959 5.52344 22.3008C5.51694 22.3032 5.51163 22.3056 5.50781 22.3066C5.50417 22.3077 5.50195 22.3076 5.50195 22.3076L5.49121 22.3096L5.48145 22.3135V22.3125C5.48113 22.3126 5.48054 22.3131 5.47949 22.3135C5.47714 22.3142 5.47314 22.316 5.46777 22.3174C5.45695 22.3202 5.44123 22.3235 5.42285 22.3252C5.38474 22.3288 5.34254 22.3249 5.30664 22.3047C5.28532 22.2927 5.27002 22.2661 5.2627 22.2236C5.25936 22.2043 5.25863 22.1858 5.25879 22.1719C5.25887 22.1653 5.25855 22.1597 5.25879 22.1562C5.25891 22.1546 5.25971 22.1529 5.25977 22.1523L5.25879 22.1514C5.26909 22.0907 5.33059 21.862 5.42188 21.5312C5.51397 21.1976 5.63466 20.7694 5.75977 20.3311C6.01005 19.4541 6.27579 18.5363 6.3584 18.249L6.38184 18.1689L6.30664 18.1318C3.28999 16.6401 1.29989 14 1.2998 11.0068C1.2998 6.38049 6.06558 2.59383 12 2.59375ZM4.42871 8.36426C4.03788 8.3664 3.72179 8.68389 3.72168 9.0752C3.72168 9.4679 4.03992 9.78707 4.43262 9.78711H5.30371V13.3877C5.30371 13.7772 5.63438 14.0839 6.02637 14.084C6.41839 14.084 6.74902 13.7773 6.74902 13.3877V9.78711H7.62012C8.01285 9.78711 8.33105 9.46792 8.33105 9.0752C8.33095 8.68256 8.01278 8.36426 7.62012 8.36426H4.42871ZM9.71094 8.36426C9.31306 8.37163 8.99478 8.6343 8.84375 8.92188L8.79004 9.04395L7.30176 12.9658L7.2998 12.9717C7.20322 13.2751 7.19211 13.4981 7.23828 13.6621C7.27409 13.7889 7.34265 13.8747 7.41992 13.9307L7.49902 13.9775C7.63283 14.0402 7.78606 14.0732 7.93848 14.0732C8.21678 14.0732 8.47025 13.9589 8.55078 13.7324L8.5498 13.7314L8.83301 12.9893H10.5957L10.8789 13.7314L10.8799 13.7305C10.9611 13.9557 11.2127 14.0693 11.4902 14.0693C11.6434 14.0693 11.7922 14.0356 11.9287 13.9736H11.9297C12.0389 13.9237 12.1455 13.8283 12.1934 13.6592C12.2398 13.4947 12.2276 13.2706 12.1289 12.9668L12.127 12.9619L10.6387 9.04395C10.5218 8.71306 10.172 8.3728 9.71484 8.36426H9.71094ZM16.4961 8.36426C16.0956 8.36445 15.7744 8.69094 15.7744 9.08691V13.3506C15.7745 13.751 16.1002 14.0731 16.4961 14.0732C16.8925 14.0732 17.2186 13.747 17.2188 13.3506V12.0342L17.3252 11.9268L18.7158 13.7705C18.8546 13.9526 19.0638 14.0576 19.2939 14.0576C19.4494 14.0576 19.6023 14.0105 19.7295 13.9141L19.7305 13.9131C19.8817 13.7962 19.9816 13.6268 20.0078 13.4355C20.0273 13.293 20.0053 13.1491 19.9434 13.0215L19.8682 12.8994L18.3877 10.9365L19.7471 9.58105C19.8662 9.46191 19.9237 9.29876 19.915 9.12695C19.9061 8.95286 19.8261 8.7909 19.7021 8.66699C19.5685 8.53343 19.3861 8.45415 19.2041 8.4541C19.044 8.4541 18.8978 8.51237 18.7881 8.62207L17.2227 10.1904V9.09375C17.2225 8.71564 16.9312 8.41109 16.5654 8.37793L16.5586 8.36426H16.4961ZM13.0723 8.36426C12.67 8.36449 12.3389 8.68903 12.3389 9.08691V13.3164C12.3389 13.6909 12.6543 13.9859 13.0342 13.9902H15.0342C15.4159 13.9901 15.7305 13.6899 15.7305 13.3164C15.7303 12.9418 15.4108 12.6466 15.0342 12.6465H13.8105V9.08691C13.8105 8.68437 13.4777 8.36426 13.0723 8.36426ZM10.1943 11.6865H9.23145L9.71191 10.3203L10.1943 11.6865Z" fill="url(#paint0_linear_30_710)" fill-opacity="0.5" stroke="url(#paint1_linear_30_710)" stroke-width="0.2"/>
<defs>
<linearGradient id="paint0_linear_30_710" x1="-1.39933" y1="0.402603" x2="19.3741" y2="22.4261" gradientUnits="userSpaceOnUse">
<stop stop-color="#FFAB7A"/>
<stop offset="1" stop-color="#996900"/>
</linearGradient>
<linearGradient id="paint1_linear_30_710" x1="2.03688" y1="2.49414" x2="18.9055" y2="22.4261" gradientUnits="userSpaceOnUse">
<stop stop-color="#E19653"/>
<stop offset="1" stop-color="white" stop-opacity="0"/>
</linearGradient>
</defs>
</svg>
