<svg width="126" height="16" viewBox="0 0 126 16" fill="none" xmlns="http://www.w3.org/2000/svg">
<path d="M0.000101641 0.377734H3.2761V12.1497H10.6021V15.0477H0.000101641V0.377734ZM11.7121 0.377734H14.9881V15.0477H11.7121V0.377734ZM26.4211 15.0477L22.3171 9.44973L20.3191 11.7537V15.0477H17.0431V0.377734H20.3191V7.28973L26.1871 0.377734H30.2011L24.4411 7.01973L30.5071 15.0477H26.4211ZM31.3742 15.0477V0.377734H42.2822V3.22173H34.6502V6.20973H41.6522V9.05373H34.6502V12.2037H42.4442V15.0477H31.3742ZM44.1057 0.377734H47.3817V12.1497H54.7077V15.0477H44.1057V0.377734ZM55.8177 0.377734H59.0937V15.0477H55.8177V0.377734ZM68.4208 15.4077C63.8668 15.4077 60.5008 12.1497 60.5008 7.70373C60.5008 3.25773 63.8668 -0.000266552 68.4208 -0.000266552C72.9748 -0.000266552 76.3408 3.25773 76.3408 7.70373C76.3408 12.1497 72.9748 15.4077 68.4208 15.4077ZM68.4208 12.4557C71.0848 12.4557 73.0648 10.4577 73.0648 7.70373C73.0648 4.93173 71.0848 2.95173 68.4208 2.95173C65.7568 2.95173 63.7768 4.93173 63.7768 7.70373C63.7768 10.4577 65.7568 12.4557 68.4208 12.4557ZM77.7474 15.0477V0.377734H80.4834L87.8094 9.19773V0.197734H91.0854V14.8677H88.3494L81.0234 6.04773V15.0477H77.7474ZM110.832 0.377734L105.342 10.4397V15.0477H102.066V10.4397L96.5761 0.377734H100.32L103.848 7.30773L107.358 0.377734H110.832ZM111.649 8.54973V0.377734H114.925V8.54973C114.925 10.8897 116.221 12.4557 118.363 12.4557C120.505 12.4557 121.801 10.8897 121.801 8.54973V0.377734H125.077V8.54973C125.077 12.7077 122.395 15.4077 118.363 15.4077C114.331 15.4077 111.649 12.7077 111.649 8.54973Z" fill="#A66822"/>
</svg>
