<svg width="70" height="70" viewBox="0 0 70 70" fill="none" xmlns="http://www.w3.org/2000/svg">
<g clip-path="url(#clip0_8_4)">
<path d="M0 34.9965C0 15.6666 15.6666 0 34.9965 0C54.3264 0 70 15.6666 70 34.9965C70 54.3264 54.3264 69.9929 34.9965 69.9929C15.6666 70 0 54.3334 0 34.9965ZM10.9333 10.9333C4.7687 17.0979 0.96366 25.6008 0.96366 34.9965C0.96366 44.3992 4.7687 52.9021 10.9333 59.0596C17.0908 65.2242 25.5937 69.0293 34.9965 69.0293C44.3992 69.0293 52.9021 65.2242 59.0596 59.0596C65.2242 52.9021 69.0293 44.3992 69.0293 34.9965C69.0293 25.6008 65.2171 17.0908 59.0596 10.9333C52.9021 4.7687 44.3992 0.96366 34.9965 0.96366C25.6008 0.96366 17.0908 4.7687 10.9333 10.9333Z" fill="#643F15"/>
<path d="M12.8252 50.7835L8.95639 53.5044L8.68713 53.1289L12.563 50.408L12.8323 50.7835H12.8252Z" fill="#643F15"/>
<path d="M57.437 50.4009L61.3129 53.1218L61.0507 53.4973L57.1748 50.7835L57.4441 50.4009H57.437Z" fill="#643F15"/>
<path d="M3.04685 39.5313L4.12388 39.3116L4.23725 39.8998L3.71291 40.006L4.03177 41.6428L5.89532 41.2673L5.66857 40.1548L5.22217 40.247L5.1088 39.7014L6.54012 39.4179L6.65349 39.9635L6.20709 40.0556L6.42675 41.1539L8.43201 40.75L8.07064 38.9503L7.48961 39.0636L7.37624 38.4755L8.5383 38.2488L9.31064 42.1105L8.77213 42.2168L8.66584 41.6854L4.216 42.5782L4.32228 43.1096L3.78377 43.223L3.03976 39.5171L3.04685 39.5313Z" fill="#643F15"/>
<path d="M7.89345 32.233L7.99974 31.6944L3.5499 30.8016L3.44361 31.3331L2.89801 31.2268L3.1531 29.9655L7.79425 28.0949L4.23013 27.3792L4.12384 27.9177L3.58533 27.8044L3.93253 26.0613L4.47104 26.1676L4.36476 26.699L9.42397 27.7123L9.26809 28.4846L4.6411 30.3056L8.12728 31.0071L8.22648 30.4686L8.77209 30.582L8.42489 32.3251L7.88637 32.2188L7.89345 32.233Z" fill="#643F15"/>
<path d="M9.18304 15.7018L10.2176 14.2493L10.671 14.5681L10.3593 15.0145L14.5682 17.9905L14.1147 18.6353L9.1547 18.4157L12.0599 20.4776L12.3716 20.0312L12.8251 20.3501L11.7906 21.8027L11.3442 21.4909L11.663 21.0445L7.95721 18.4157L7.64544 18.8621L7.19904 18.5432L7.95012 17.5016L12.9456 17.6788L9.97664 15.5743L9.66487 16.0207L9.21139 15.7018H9.18304Z" fill="#643F15"/>
<path d="M12.8534 11.4859L17.9126 13.8312L18.1606 13.5832L18.5433 13.98L17.2182 15.2484L16.8427 14.8445L17.1686 14.5327L16.1058 14.0438L14.5823 15.4964L15.0217 16.5734L15.3901 16.2262L15.7657 16.623L14.6886 17.6504L14.3131 17.2536L14.5611 17.0198L12.4637 11.8614L12.8676 11.4717L12.8534 11.4859ZM14.3485 14.9579L15.5673 13.7958L13.477 12.8321L14.3485 14.9579Z" fill="#643F15"/>
<path d="M23.8293 10.6994L22.1145 11.7339L21.8311 11.2663L22.2987 10.9828L20.4919 8.02809L21.1367 11.8473L20.7257 12.1095L17.5584 9.64363L19.429 12.7259L19.925 12.4142L20.2155 12.8889L18.6567 13.8313L18.3732 13.3636L18.8338 13.0802L16.4743 9.19723L16.0066 9.48066L15.7232 9.013L17.0907 8.18397L20.3431 10.6994L19.6487 6.6322L20.8887 5.87402L21.1721 6.34168L20.7044 6.61803L23.064 10.501L23.5317 10.2176L23.8222 10.6923L23.8293 10.6994Z" fill="#643F15"/>
<path d="M4.6127 45.8023L5.11579 45.6039L4.94573 45.1575L7.55328 45.3701L5.75351 47.2549L5.58345 46.8085L5.07327 47.0069L5.81019 48.92L6.32036 48.7287L6.15739 48.2894L8.54529 45.7102L9.87032 45.1929L10.0687 45.7102L10.5647 45.5118L9.8278 43.6057L9.32472 43.797L9.5302 44.3072L8.12723 44.8386L4.69773 44.5198L4.54184 44.1159L4.03876 44.3143L4.6127 45.8023Z" fill="#643F15"/>
<path d="M8.45322 23.0144L9.22556 21.2075Z" fill="#643F15"/>
<path d="M9.22551 21.2075L8.45317 23.0143L8.95625 23.234L9.20425 22.653L10.5647 23.2411C10.5435 23.4182 10.4868 23.6166 10.3947 23.8363C9.89866 24.9983 8.70117 25.2676 7.41156 24.7149C6.18573 24.1906 5.47716 23.1844 5.93064 22.1215C6.12904 21.6539 6.47625 21.2854 6.73842 21.172L7.29111 21.3563L7.52493 20.8178L6.41956 20.343C6.41956 20.343 5.85979 20.8957 5.37087 22.0365C4.65521 23.7087 5.49841 24.9913 7.02185 25.6431C8.54528 26.295 10.1325 25.9408 10.834 24.3181C11.082 23.7371 11.2945 22.9435 11.2733 22.49L9.60106 21.7743L9.74986 21.4342L9.24677 21.2146L9.22551 21.2075Z" fill="#643F15"/>
<path d="M2.76328 32.7219L2.78453 34.5359H3.33013V33.9903L6.51163 33.9619C7.49655 33.9548 8.02089 34.3162 8.02798 35.1311C8.03506 35.9459 7.5178 36.3215 6.53289 36.3286L3.35139 36.3569V35.8609H2.7987L2.81996 37.8591H3.36556V37.2993L6.54706 37.271C7.79415 37.2568 8.58775 36.6333 8.57358 35.2303C8.55941 33.8273 7.75163 33.2179 6.50454 33.2321L3.32305 33.2604V32.7148H2.77036L2.76328 32.7219Z" fill="#643F15"/>
<path d="M36.0734 8.49578L33.3454 4.34354L33.3737 7.90057H33.9193V8.44618L32.1408 8.46035V7.90766H32.6864L32.6439 3.3657H32.0983V2.8201H33.3879L36.1655 6.97234L36.1301 3.33736H35.5845V2.79176L37.3559 2.77759V3.32319H36.8174L36.8599 8.48869H36.0734V8.49578Z" fill="#643F15"/>
<path d="M38.1565 8.04943L38.6951 8.13446L39.3895 3.64919L38.8509 3.56416L38.936 3.01855L40.9696 3.33741L40.8845 3.88301L40.346 3.79799L39.6516 8.28326L40.1831 8.36829L40.098 8.91389L38.0644 8.59503L38.1495 8.04943H38.1565Z" fill="#643F15"/>
<path d="M41.8057 3.42237L43.5984 3.9538L43.4425 4.48523L42.9607 4.33643L43.2583 8.19107L45.5683 5.10877L45.0864 4.96706L45.2423 4.43563L46.6666 4.86077L46.5107 5.38512L46.1776 5.28592L42.8757 9.69325L42.4009 9.55153L41.9687 4.03883L41.6357 3.94671L41.7987 3.41528L41.8057 3.42237Z" fill="#643F15"/>
<path d="M48.4735 12.0032L44.9307 10.2814L45.1645 9.79248L45.6534 10.0263L47.6374 5.94492L47.1485 5.70401L47.3894 5.20801L50.7906 6.85898L50.3158 7.8439L49.7773 7.58173L50.0111 7.09281L48.509 6.36298L47.6728 8.07773L48.6932 8.56665L48.8916 8.15567L49.3876 8.39659L48.7499 9.71454L48.2468 9.46654L48.4452 9.06265L47.4319 8.56665L46.532 10.4089L48.1759 11.2096L48.4381 10.6782L48.9766 10.9404L48.4664 12.0032H48.4735Z" fill="#643F15"/>
<path d="M55.9985 17.8064L56.3316 18.2457L59.9453 15.5035L59.6123 15.0713L60.0516 14.7383L61.2987 16.3751L60.8594 16.7081L60.5263 16.2688L56.9055 19.011L57.2386 19.4503L56.7992 19.7833L55.5592 18.1465L55.9985 17.8135V17.8064Z" fill="#643F15"/>
<path d="M58.6627 22.8516L57.6424 21.066L58.1242 20.7896L58.3935 21.2644L62.2977 19.0465L61.6246 17.8561L61.0648 18.1679L60.7743 17.6436L61.8442 17.0342L64.2675 21.314L63.1905 21.9233L62.9 21.399L63.4527 21.0872L62.7654 19.8897L58.854 22.1005L59.1304 22.5681L58.6485 22.8445L58.6627 22.8516Z" fill="#643F15"/>
<path d="M60.3209 26.8479L59.6123 24.9205L60.1296 24.7292L60.3209 25.2465L62.1348 24.5733L64.048 22.235L63.9204 21.8949L64.4377 21.7107L65.1108 23.5388L64.5936 23.723L64.4377 23.2837L63.0843 24.9418L65.1959 25.3669L65.0329 24.9205L65.5502 24.7292L66.0745 26.1676L65.5572 26.3589L65.4297 26.0188L62.5316 25.459L60.6397 26.1535L60.8311 26.6636L60.3138 26.8549L60.3209 26.8479Z" fill="#643F15"/>
<path d="M30.6457 2.98315L28.8743 3.37287L28.9877 3.91139L29.5191 3.79801L30.1922 6.90865C30.4048 7.87231 30.1497 8.45334 29.3561 8.63049C28.5554 8.80055 28.0878 8.3754 27.8823 7.41174L27.2092 4.3011L27.691 4.19482L27.5776 3.6563L25.6219 4.08144L25.7353 4.61996L26.2809 4.4995L26.9541 7.60305C27.2162 8.8218 27.9886 9.47369 29.3632 9.17609C30.7378 8.87849 31.1701 7.95734 30.9008 6.74568L30.2277 3.63504L30.7662 3.52167L30.6528 2.98315H30.6457Z" fill="#643F15"/>
<path d="M58.1739 14.4265L57.7629 14.0013L58.1172 13.6045C58.103 13.4487 57.9826 13.0448 57.7346 12.7826C57.4582 12.4992 56.9906 12.4637 56.6221 12.8251C56.3812 13.0589 56.3316 13.3991 56.4521 13.9517C56.4521 13.9517 56.53 14.2777 56.5584 14.384C56.8205 15.3901 56.8843 16.0349 56.2891 16.6018C55.5734 17.2891 54.5106 17.1758 53.7807 16.4176C53.2918 15.9074 52.9517 15.3689 52.8525 15.05L53.717 14.221L54.1209 14.6461L53.7311 15.0855C53.7311 15.3547 53.887 15.7444 54.135 15.9995C54.5318 16.4105 55.0845 16.4247 55.453 16.0704C55.8144 15.7232 55.8073 15.3901 55.6585 14.7453C55.6301 14.632 55.5593 14.3202 55.5593 14.3202C55.3042 13.3211 55.3467 12.7117 55.8285 12.2512C56.5158 11.5922 57.4653 11.7126 58.1101 12.3787C58.5424 12.8251 58.8683 13.4557 58.9533 13.6825L58.1739 14.4265Z" fill="#643F15"/>
<path d="M52.5762 14.2636L52.7037 11.904C53.3698 12.152 53.9225 11.982 54.4185 11.3017C55.12 10.3452 54.8295 9.59408 53.7241 8.78631L52.1794 7.65259L51.8534 8.0919L52.2928 8.41785L49.6073 12.0741L49.168 11.7481L48.842 12.1875L50.5001 13.4062L50.826 12.9669L50.3867 12.6409L51.485 11.1459L51.818 11.3868L51.5984 14.1998L52.6258 14.9509L52.9517 14.5116L52.5833 14.2423L52.5762 14.2636ZM53.0722 8.98471L53.3769 9.21145C54.0217 9.68619 54.0784 10.0547 53.6036 10.7065C53.1289 11.3584 52.7604 11.4151 52.1085 10.9333L51.8038 10.7065L53.0722 8.98471Z" fill="#643F15"/>
<path d="M61.5751 33.5014L61.2775 30.7876L61.8302 30.7238L61.9294 31.6308L66.3013 31.149L66.0178 30.2632L66.5776 30.1995L67.1445 31.978L62.0215 32.5448L62.1207 33.4518L61.568 33.5085L61.5751 33.5014Z" fill="#643F15"/>
<path d="M65.5925 45.533L64.7847 45.2071L63.7431 47.8075C62.4677 45.7172 61.0647 44.0096 60.1648 43.6482L59.7751 44.6189C61.4119 45.2708 62.9141 47.432 63.6581 48.7287L64.2108 48.9554L65.5854 45.533H65.5925Z" fill="#643F15"/>
<path d="M63.403 39.0777L62.9212 38.9714L62.3827 41.3664L61.4261 41.1538L61.5466 40.6224L61.001 40.502L60.5687 42.4222L61.1143 42.5426L61.2348 42.0041L62.1914 42.2167L62.0142 43.0103L62.737 43.1733L62.9141 42.3797L66.2869 43.1308L66.4074 42.5781L63.3959 39.0706L63.403 39.0777ZM63.1054 41.5294L63.4455 39.9918L65.1603 41.9758L63.0983 41.5223L63.1054 41.5294Z" fill="#643F15"/>
<path d="M67.3216 36.3923C67.3783 35.1239 66.3509 34.4791 65.4297 34.4437C64.5086 34.4012 63.5591 35.0177 63.5095 36.0876C63.4811 36.7112 63.7929 37.1292 63.9134 37.278C63.0418 37.193 61.9364 36.7324 61.979 35.8963C61.9931 35.5633 62.0852 35.2869 62.1632 35.1735L62.6096 35.1523L62.6379 34.5642L61.7664 34.5287C61.6247 34.7555 61.4617 35.1594 61.4334 35.8892C61.3979 36.6899 61.7593 37.278 62.3545 37.6819C62.978 38.107 63.7717 38.27 64.6786 38.3125C66.1666 38.3763 67.2649 37.8165 67.3287 36.4065L67.3216 36.3923ZM64.0551 36.2222C64.0834 35.5916 64.7211 35.3294 65.4935 35.3578C66.2658 35.3932 66.7973 35.7191 66.7689 36.3356C66.7406 36.9521 65.9399 37.3701 65.1817 37.3347C64.2606 37.2922 64.0409 36.697 64.0622 36.2151L64.0551 36.2222Z" fill="#643F15"/>
<path d="M19.1101 56.1687C19.2872 56.3175 19.2802 56.4734 19.1243 56.6647L19.018 56.7922L17.9055 55.864C17.9339 55.3255 17.6788 54.7445 17.1473 54.2981C16.29 53.5895 15.2413 53.6462 14.6673 54.3335C14.1005 55.0137 14.228 56.0695 15.0783 56.7781C15.6027 57.2174 16.2049 57.3591 16.7222 57.2457L17.8488 58.181L17.3883 58.7337L18.2527 59.4494L20.3288 56.9481L19.2164 56.0199L19.103 56.1545L19.1101 56.1687ZM15.4539 56.3388C15.0712 56.0199 15.1775 55.4672 15.5176 55.0562C15.8577 54.6523 16.3892 54.4539 16.7647 54.7657C17.1403 55.0775 17.0481 55.6373 16.708 56.0412C16.3679 56.4521 15.8365 56.6505 15.4539 56.3388ZM18.2244 57.7417L17.3103 56.9836C17.4024 56.9127 17.4804 56.8348 17.5583 56.7497C17.6292 56.6647 17.6859 56.5797 17.7355 56.4876L18.6424 57.2457L18.2244 57.7488V57.7417ZM16.5096 58.174C15.5247 57.352 14.4264 57.3804 13.8596 58.0606C13.2927 58.7479 13.4628 59.832 14.4477 60.654C15.4326 61.4759 16.538 61.4405 17.1048 60.7603C17.6717 60.0729 17.5016 58.9888 16.5167 58.1669M14.8161 60.2147C14.3839 59.8533 14.3556 59.2439 14.724 58.7975C15.0925 58.3582 15.7019 58.2802 16.127 58.6345C16.5521 58.9888 16.5947 59.5982 16.2262 60.0446C15.8577 60.491 15.2484 60.576 14.8161 60.2147Z" fill="#643F15"/>
<path d="M22.6388 62.4608C22.8514 62.5388 22.9081 62.6876 22.823 62.9214L22.3199 64.3598C22.1995 64.7141 22.3837 65.0967 22.738 65.2243L26.2171 66.443L27.1241 63.8496L22.6955 62.2979L22.6388 62.4679V62.4608ZM23.8717 63.3324L25.8699 64.0339L25.3526 65.5148L23.3545 64.8133L23.8717 63.3324Z" fill="#643F15"/>
<path d="M28.9026 61.8089L27.9531 61.4759L28.3216 60.4272L26.954 59.9453L26.8974 60.1154C27.1099 60.1933 27.1666 60.3421 27.0816 60.576L26.5218 62.1703L23.5387 61.1287L24.226 59.1659L22.8585 58.6841L22.8018 58.8541C23.0144 58.9321 23.0711 59.0809 22.986 59.3147L22.5113 60.6752C22.3908 61.0295 22.5751 61.4121 22.9293 61.5396L26.3376 62.73L26.1959 63.1268L27.2587 63.4953L27.7689 62.0286L28.7184 62.3616L28.9168 61.8018L28.9026 61.8089Z" fill="#643F15"/>
<path d="M42.9396 64.7423L46.5179 63.4173L47.1485 65.1178L48.2043 64.7281L47.3681 62.4678L42.7341 64.1825L42.9396 64.7423Z" fill="#643F15"/>
<path d="M44.8738 61.3695C44.7534 61.0436 44.5125 60.7885 44.2007 60.6326L44.7817 60.42L44.5833 59.8886L43.2512 60.3846L42.989 59.6689L41.6286 60.172L41.6923 60.335C41.9049 60.2571 42.0395 60.335 42.1317 60.5688L42.2025 60.7672L40.8633 61.2632L41.0617 61.7947L41.6569 61.575C41.5223 61.8939 41.5081 62.2411 41.6286 62.567C41.9049 63.3181 42.7977 63.6866 43.7614 63.3323C44.725 62.978 45.1644 62.1135 44.8809 61.3624L44.8738 61.3695ZM42.6206 62.2056C42.4505 61.7522 42.5426 61.3199 42.9536 61.1711C43.3575 61.0223 43.7118 61.2916 43.8818 61.7451C44.0519 62.1986 43.9669 62.6379 43.5559 62.7867C43.1449 62.9426 42.7977 62.6591 42.6277 62.2056H42.6206Z" fill="#643F15"/>
<path d="M47.4247 59.7256L46.4823 60.0728L45.9934 58.7549L44.6329 59.258L44.6967 59.4209C44.9092 59.343 45.0439 59.4209 45.136 59.6548L46.1705 62.4536L47.2263 62.0639L46.6949 60.6184L47.6373 60.2712L47.4318 59.7185L47.4247 59.7256Z" fill="#643F15"/>
<path d="M36.3851 61.157V61.3341C36.6119 61.3341 36.7111 61.4546 36.7111 61.7097V62.8859H36.1017V61.157H34.7271V61.3341C34.9538 61.3341 35.053 61.4546 35.053 61.7097V64.792H33.1186V62.0214H34.4011V61.4333H31.666V61.6105C31.8928 61.6105 31.992 61.7309 31.992 61.986V64.7069C31.992 65.0825 32.2966 65.3872 32.6722 65.3872H35.053V67.5271H36.1017V63.4811H36.7111V67.5271H37.7739V61.1641H36.3851V61.157Z" fill="#643F15"/>
<path d="M55.6089 57.9755L56.4663 57.2669L53.5894 53.7878L49.6852 57.0189L50.0608 57.4724L53.1147 54.9499L55.6089 57.9755Z" fill="#643F15"/>
<path d="M55.4459 58.8115L53.6673 56.6575L52.6045 57.5361L52.7179 57.6707C52.895 57.5219 53.0509 57.5574 53.2068 57.7487L54.6381 59.4776L54.0783 59.9382L52.2998 57.7841L51.2369 58.6627L51.3503 58.7974C51.5275 58.6486 51.6833 58.684 51.8392 58.8753L53.2705 60.6042L52.3565 61.3553L52.732 61.8088L57.6283 57.7628L57.2527 57.3094L55.4459 58.7974V58.8115Z" fill="#643F15"/>
<path d="M34.7398 10.0825C48.4266 10.0828 59.522 21.1779 59.5221 34.8647C59.5221 48.5516 48.4266 59.6467 34.7398 59.647C21.0528 59.647 9.95663 48.5518 9.95663 34.8647C9.95666 21.1778 21.0528 10.0825 34.7398 10.0825ZM18.1266 25.2739V44.4565L34.7398 54.0474L51.3521 44.4565V25.2739L34.7398 15.6821L18.1266 25.2739Z" fill="#643F15"/>
<path d="M22.2826 29.3159C22.5823 29.3159 22.737 29.3074 22.9418 29.395C22.9842 29.4132 23.0254 29.4327 23.0658 29.4536C23.3748 29.6138 23.6903 29.7807 24.0375 29.8062L28.5619 30.1382C29.2665 30.1899 29.8118 30.7764 29.8119 31.4829V39.3608H39.7025V31.4829C39.7026 30.7764 40.2488 30.1899 40.9535 30.1382L45.4779 29.8062C45.8248 29.7806 46.1397 29.6137 46.4486 29.4536C46.4891 29.4326 46.5311 29.4132 46.5736 29.395C46.7783 29.3075 46.9332 29.3159 47.2328 29.3159L47.2816 29.3179C47.3196 29.3194 47.3525 29.3454 47.3617 29.3823C47.3731 29.4282 47.345 29.4743 47.2992 29.4858C47.0402 29.5509 46.8543 29.6005 46.6908 29.6704C46.5167 29.7449 46.365 29.8443 46.184 30.0181L46.1576 30.0464V30.0562L46.1459 30.0571C44.4466 31.8236 42.4191 33.4344 40.0023 33.939V39.3608L34.8334 43.6313L29.5121 39.3608V33.939C27.0953 33.4344 25.0678 31.8235 23.3685 30.0571L23.3568 30.0562L23.3578 30.0464L23.3314 30.0181C23.1503 29.8442 22.9978 29.7449 22.8236 29.6704C22.6603 29.6006 22.4749 29.5508 22.2162 29.4858C22.1703 29.4743 22.1423 29.4282 22.1537 29.3823C22.1629 29.3456 22.195 29.3196 22.2328 29.3179L22.2826 29.3159Z" fill="#643F15"/>
</g>
<defs>
<clipPath id="clip0_8_4">
<rect width="70" height="70" fill="white"/>
</clipPath>
</defs>
</svg>
