<svg width="126" height="16" viewBox="0 0 126 16" fill="none" xmlns="http://www.w3.org/2000/svg">
<path d="M1.00881e-05 0.377978H3.27601V12.15H10.602V15.048H1.00881e-05V0.377978ZM11.712 0.377978H14.988V15.048H11.712V0.377978ZM26.4211 15.048L22.3171 9.44998L20.3191 11.754V15.048H17.0431V0.377978H20.3191V7.28998L26.1871 0.377978H30.2011L24.4411 7.01998L30.5071 15.048H26.4211ZM31.3741 15.048V0.377978H42.2822V3.22198H34.6501V6.20998H41.6521V9.05398H34.6501V12.204H42.4442V15.048H31.3741ZM44.1056 0.377978H47.3816V12.15H54.7076V15.048H44.1056V0.377978ZM55.8176 0.377978H59.0936V15.048H55.8176V0.377978ZM68.4207 15.408C63.8667 15.408 60.5007 12.15 60.5007 7.70398C60.5007 3.25798 63.8667 -2.24113e-05 68.4207 -2.24113e-05C72.9747 -2.24113e-05 76.3407 3.25798 76.3407 7.70398C76.3407 12.15 72.9747 15.408 68.4207 15.408ZM68.4207 12.456C71.0847 12.456 73.0647 10.458 73.0647 7.70398C73.0647 4.93198 71.0847 2.95198 68.4207 2.95198C65.7567 2.95198 63.7767 4.93198 63.7767 7.70398C63.7767 10.458 65.7567 12.456 68.4207 12.456ZM77.7474 15.048V0.377978H80.4834L87.8094 9.19798V0.197978H91.0854V14.868H88.3494L81.0234 6.04798V15.048H77.7474ZM110.832 0.377978L105.342 10.44V15.048H102.066V10.44L96.5761 0.377978H100.32L103.848 7.30798L107.358 0.377978H110.832ZM111.649 8.54998V0.377978H114.925V8.54998C114.925 10.89 116.221 12.456 118.363 12.456C120.505 12.456 121.801 10.89 121.801 8.54998V0.377978H125.077V8.54998C125.077 12.708 122.395 15.408 118.363 15.408C114.331 15.408 111.649 12.708 111.649 8.54998Z" fill="#643F15"/>
</svg>
