<svg width="70" height="70" viewBox="0 0 70 70" fill="none" xmlns="http://www.w3.org/2000/svg">
<g clip-path="url(#clip0_38_763)">
<path d="M0 34.9965C0 15.6666 15.6666 0 34.9965 0C54.3264 0 70 15.6666 70 34.9965C70 54.3264 54.3264 69.9929 34.9965 69.9929C15.6666 70 0 54.3334 0 34.9965ZM10.9333 10.9333C4.7687 17.0979 0.96366 25.6008 0.96366 34.9965C0.96366 44.3992 4.7687 52.9021 10.9333 59.0596C17.0908 65.2242 25.5937 69.0293 34.9965 69.0293C44.3992 69.0293 52.9021 65.2242 59.0596 59.0596C65.2242 52.9021 69.0293 44.3992 69.0293 34.9965C69.0293 25.6008 65.2171 17.0908 59.0596 10.9333C52.9021 4.7687 44.3992 0.96366 34.9965 0.96366C25.6008 0.96366 17.0908 4.7687 10.9333 10.9333Z" fill="#A66822"/>
<path d="M12.8256 50.7837L8.95676 53.5047L8.6875 53.1291L12.5634 50.4082L12.8327 50.7837H12.8256Z" fill="#A66822"/>
<path d="M57.437 50.4004L61.3129 53.1213L61.0507 53.4969L57.1748 50.783L57.4441 50.4004H57.437Z" fill="#A66822"/>
<path d="M3.04712 39.5315L4.12416 39.3119L4.23753 39.9L3.71318 40.0063L4.03204 41.6431L5.89559 41.2675L5.66885 40.1551L5.22245 40.2472L5.10907 39.7016L6.54039 39.4182L6.65377 39.9638L6.20736 40.0559L6.42702 41.1542L8.43229 40.7503L8.07091 38.9505L7.48988 39.0639L7.37651 38.4758L8.53857 38.249L9.31092 42.1108L8.7724 42.217L8.66611 41.6856L4.21627 42.5784L4.32256 43.1098L3.78404 43.2232L3.04004 39.5174L3.04712 39.5315Z" fill="#A66822"/>
<path d="M7.89388 32.2332L8.00017 31.6947L3.55033 30.8019L3.44404 31.3333L2.89844 31.227L3.15352 29.9658L7.79468 28.0951L4.23056 27.3795L4.12427 27.918L3.58575 27.8046L3.93296 26.0615L4.47147 26.1678L4.36518 26.6992L9.4244 27.7125L9.26851 28.4848L4.64153 30.3059L8.12771 31.0074L8.22691 30.4689L8.77251 30.5822L8.42531 32.3253L7.8868 32.219L7.89388 32.2332Z" fill="#A66822"/>
<path d="M9.18323 15.7016L10.2177 14.249L10.6712 14.5679L10.3595 15.0143L14.5684 17.9903L14.1149 18.6351L9.15488 18.4154L12.06 20.4774L12.3718 20.031L12.8253 20.3498L11.7908 21.8024L11.3444 21.4906L11.6632 21.0442L7.95739 18.4154L7.64562 18.8618L7.19922 18.543L7.95031 17.5014L12.9458 17.6785L9.97683 15.5741L9.66506 16.0205L9.21157 15.7016H9.18323Z" fill="#A66822"/>
<path d="M12.8536 11.4859L17.9128 13.8312L18.1608 13.5832L18.5434 13.98L17.2184 15.2484L16.8429 14.8445L17.1688 14.5327L16.1059 14.0438L14.5825 15.4964L15.0218 16.5734L15.3903 16.2262L15.7658 16.623L14.6888 17.6504L14.3132 17.2536L14.5612 17.0198L12.4639 11.8614L12.8678 11.4717L12.8536 11.4859ZM14.3487 14.9579L15.5674 13.7958L13.4771 12.8321L14.3487 14.9579Z" fill="#A66822"/>
<path d="M23.8297 10.6994L22.115 11.7339L21.8315 11.2663L22.2992 10.9828L20.4923 8.02809L21.1371 11.8473L20.7262 12.1095L17.5588 9.64363L19.4295 12.7259L19.9255 12.4142L20.216 12.8889L18.6571 13.8313L18.3737 13.3636L18.8343 13.0802L16.4747 9.19723L16.0071 9.48066L15.7236 9.013L17.0912 8.18397L20.3435 10.6994L19.6491 6.6322L20.8891 5.87402L21.1726 6.34168L20.7049 6.61803L23.0645 10.501L23.5321 10.2176L23.8226 10.6923L23.8297 10.6994Z" fill="#A66822"/>
<path d="M4.61301 45.802L5.11609 45.6036L4.94604 45.1572L7.55359 45.3698L5.75381 47.2546L5.58375 46.8082L5.07358 47.0066L5.8105 48.9198L6.32067 48.7285L6.1577 48.2891L8.54559 45.7099L9.87062 45.1927L10.069 45.7099L10.565 45.5115L9.82811 43.6055L9.32502 43.7968L9.53051 44.307L8.12753 44.8384L4.69804 44.5195L4.54215 44.1156L4.03906 44.314L4.61301 45.802Z" fill="#A66822"/>
<path d="M8.45312 23.0149L9.22547 21.208Z" fill="#A66822"/>
<path d="M9.22518 21.2072L8.45283 23.0141L8.95592 23.2338L9.20392 22.6527L10.5644 23.2408C10.5431 23.418 10.4864 23.6164 10.3943 23.836C9.89832 24.9981 8.70083 25.2674 7.41123 24.7147C6.18539 24.1903 5.47682 23.1842 5.93031 22.1213C6.12871 21.6536 6.47591 21.2852 6.73808 21.1718L7.29077 21.356L7.5246 20.8175L6.41922 20.3428C6.41922 20.3428 5.85945 20.8955 5.37054 22.0363C4.65488 23.7085 5.49808 24.991 7.02151 25.6429C8.54495 26.2948 10.1322 25.9405 10.8336 24.3179C11.0816 23.7368 11.2942 22.9432 11.273 22.4898L9.60072 21.7741L9.74952 21.434L9.24643 21.2143L9.22518 21.2072Z" fill="#A66822"/>
<path d="M2.76367 32.7219L2.78493 34.5359H3.33053V33.9903L6.51203 33.9619C7.49694 33.9548 8.02129 34.3162 8.02837 35.1311C8.03546 35.9459 7.5182 36.3215 6.53328 36.3286L3.35179 36.3569V35.8609H2.7991L2.82036 37.8591H3.36596V37.2993L6.54746 37.271C7.79454 37.2568 8.58815 36.6333 8.57398 35.2303C8.55981 33.8273 7.75203 33.2179 6.50494 33.2321L3.32345 33.2604V32.7148H2.77076L2.76367 32.7219Z" fill="#A66822"/>
<path d="M36.0737 8.49553L33.3457 4.34329L33.3741 7.90033H33.9197V8.44593L32.1411 8.4601V7.90742H32.6868L32.6442 3.36546H32.0986V2.81986H33.3882L36.1658 6.9721L36.1304 3.33712H35.5848V2.79152L37.3563 2.77734V3.32295H36.8177L36.8602 8.48845H36.0737V8.49553Z" fill="#A66822"/>
<path d="M38.1566 8.04943L38.6951 8.13446L39.3895 3.64919L38.851 3.56416L38.936 3.01855L40.9696 3.33741L40.8846 3.88301L40.3461 3.79799L39.6517 8.28326L40.1831 8.36829L40.0981 8.91389L38.0645 8.59503L38.1495 8.04943H38.1566Z" fill="#A66822"/>
<path d="M41.8058 3.42212L43.5985 3.95355L43.4426 4.48499L42.9608 4.33618L43.2584 8.19083L45.5683 5.10853L45.0865 4.96682L45.2424 4.43539L46.6666 4.86053L46.5107 5.38487L46.1777 5.28567L42.8757 9.693L42.401 9.55129L41.9688 4.03858L41.6357 3.94647L41.7987 3.41504L41.8058 3.42212Z" fill="#A66822"/>
<path d="M48.4735 12.0032L44.9307 10.2814L45.1645 9.79248L45.6534 10.0263L47.6374 5.94492L47.1485 5.70401L47.3894 5.20801L50.7906 6.85898L50.3158 7.8439L49.7773 7.58173L50.0111 7.09281L48.509 6.36298L47.6728 8.07773L48.6932 8.56665L48.8916 8.15567L49.3876 8.39659L48.7499 9.71454L48.2468 9.46654L48.4452 9.06265L47.4319 8.56665L46.532 10.4089L48.1759 11.2096L48.4381 10.6782L48.9766 10.9404L48.4664 12.0032H48.4735Z" fill="#A66822"/>
<path d="M55.9989 17.8064L56.3319 18.2457L59.9456 15.5035L59.6126 15.0713L60.0519 14.7383L61.299 16.3751L60.8597 16.7081L60.5267 16.2688L56.9059 19.011L57.2389 19.4503L56.7996 19.7833L55.5596 18.1465L55.9989 17.8135V17.8064Z" fill="#A66822"/>
<path d="M58.6629 22.8516L57.6426 21.066L58.1244 20.7896L58.3937 21.2644L62.2979 19.0465L61.6248 17.8561L61.065 18.1679L60.7745 17.6436L61.8444 17.0342L64.2677 21.314L63.1907 21.9233L62.9002 21.399L63.4529 21.0872L62.7656 19.8897L58.8542 22.1005L59.1306 22.5681L58.6488 22.8445L58.6629 22.8516Z" fill="#A66822"/>
<path d="M60.3209 26.8481L59.6123 24.9208L60.1296 24.7295L60.3209 25.2467L62.1348 24.5736L64.048 22.2353L63.9204 21.8952L64.4377 21.7109L65.1108 23.5391L64.5936 23.7233L64.4377 23.284L63.0843 24.942L65.1959 25.3672L65.0329 24.9208L65.5502 24.7295L66.0745 26.1679L65.5572 26.3592L65.4297 26.0191L62.5316 25.4593L60.6397 26.1537L60.8311 26.6639L60.3138 26.8552L60.3209 26.8481Z" fill="#A66822"/>
<path d="M30.6459 2.9834L28.8744 3.37311L28.9878 3.91163L29.5192 3.79826L30.1924 6.9089C30.4049 7.87256 30.1499 8.45359 29.3563 8.63073C28.5556 8.80079 28.0879 8.37564 27.8824 7.41198L27.2093 4.30135L27.6911 4.19506L27.5777 3.65654L25.6221 4.08169L25.7354 4.6202L26.281 4.49975L26.9542 7.6033C27.2164 8.82205 27.9887 9.47393 29.3633 9.17633C30.738 8.87873 31.1702 7.95759 30.9009 6.74593L30.2278 3.63529L30.7663 3.52191L30.6529 2.9834H30.6459Z" fill="#A66822"/>
<path d="M58.1739 14.4262L57.763 14.0011L58.1172 13.6043C58.1031 13.4484 57.9826 13.0445 57.7346 12.7824C57.4583 12.4989 56.9906 12.4635 56.6222 12.8249C56.3812 13.0587 56.3316 13.3988 56.4521 13.9515C56.4521 13.9515 56.53 14.2774 56.5584 14.3837C56.8206 15.3899 56.8843 16.0347 56.2891 16.6016C55.5735 17.2889 54.5106 17.1755 53.7808 16.4173C53.2919 15.9072 52.9517 15.3686 52.8525 15.0498L53.717 14.2208L54.1209 14.6459L53.7312 15.0852C53.7312 15.3545 53.8871 15.7442 54.1351 15.9993C54.5319 16.4102 55.0846 16.4244 55.453 16.0701C55.8144 15.7229 55.8073 15.3899 55.6585 14.7451C55.6302 14.6317 55.5593 14.32 55.5593 14.32C55.3042 13.3209 55.3467 12.7115 55.8286 12.2509C56.5159 11.5919 57.4654 11.7124 58.1102 12.3785C58.5424 12.8249 58.8683 13.4555 58.9534 13.6822L58.1739 14.4262Z" fill="#A66822"/>
<path d="M52.576 14.2633L52.7035 11.9038C53.3696 12.1518 53.9223 11.9817 54.4183 11.3015C55.1198 10.3449 54.8292 9.59384 53.7239 8.78606L52.1792 7.65234L51.8532 8.09166L52.2926 8.4176L49.6071 12.0738L49.1677 11.7479L48.8418 12.1872L50.4999 13.406L50.8258 12.9666L50.3865 12.6407L51.4848 11.1456L51.8178 11.3865L51.5981 14.1996L52.6256 14.9507L52.9515 14.5113L52.5831 14.2421L52.576 14.2633ZM53.072 8.98446L53.3767 9.21121C54.0215 9.68595 54.0782 10.0544 53.6034 10.7063C53.1287 11.3582 52.7602 11.4149 52.1083 10.933L51.8036 10.7063L53.072 8.98446Z" fill="#A66822"/>
<path d="M61.5749 33.5012L61.2773 30.7873L61.83 30.7236L61.9292 31.6305L66.3011 31.1487L66.0177 30.263L66.5775 30.1992L67.1443 31.9777L62.0213 32.5446L62.1205 33.4516L61.5679 33.5083L61.5749 33.5012Z" fill="#A66822"/>
<path d="M65.5928 45.5332L64.785 45.2073L63.7434 47.8078C62.468 45.7175 61.065 44.0098 60.1651 43.6484L59.7754 44.6192C61.4122 45.2711 62.9144 47.4322 63.6584 48.7289L64.2111 48.9557L65.5857 45.5332H65.5928Z" fill="#A66822"/>
<path d="M63.4027 39.078L62.9208 38.9717L62.3823 41.3667L61.4257 41.1541L61.5462 40.6227L61.0006 40.5022L60.5684 42.4224L61.114 42.5429L61.2344 42.0044L62.191 42.2169L62.0138 43.0106L62.7366 43.1735L62.9137 42.3799L66.2865 43.131L66.407 42.5783L63.3956 39.0709L63.4027 39.078ZM63.105 41.5296L63.4452 39.992L65.1599 41.976L63.098 41.5225L63.105 41.5296Z" fill="#A66822"/>
<path d="M67.3213 36.392C67.378 35.1237 66.3506 34.4789 65.4294 34.4435C64.5083 34.401 63.5588 35.0174 63.5092 36.0874C63.4808 36.7109 63.7926 37.129 63.9131 37.2778C63.0415 37.1927 61.9361 36.7322 61.9787 35.896C61.9928 35.563 62.0849 35.2867 62.1629 35.1733L62.6093 35.152L62.6376 34.5639L61.7661 34.5285C61.6244 34.7552 61.4614 35.1591 61.4331 35.889C61.3976 36.6896 61.759 37.2778 62.3542 37.6817C62.9777 38.1068 63.7713 38.2698 64.6783 38.3123C66.1663 38.3761 67.2646 37.8163 67.3284 36.4062L67.3213 36.392ZM64.0548 36.222C64.0831 35.5914 64.7208 35.3292 65.4932 35.3575C66.2655 35.393 66.797 35.7189 66.7686 36.3354C66.7403 36.9518 65.9396 37.3699 65.1814 37.3344C64.2603 37.2919 64.0406 36.6967 64.0619 36.2149L64.0548 36.222Z" fill="#A66822"/>
<path d="M19.1104 56.1689C19.2875 56.3177 19.2804 56.4736 19.1245 56.6649L19.0183 56.7925L17.9058 55.8643C17.9341 55.3257 17.6791 54.7447 17.1476 54.2983C16.2902 53.5897 15.2416 53.6464 14.6676 54.3337C14.1008 55.014 14.2283 56.0697 15.0786 56.7783C15.6029 57.2176 16.2052 57.3593 16.7225 57.246L17.8491 58.1813L17.3885 58.734L18.253 59.4496L20.3291 56.9484L19.2167 56.0201L19.1033 56.1548L19.1104 56.1689ZM15.4541 56.339C15.0715 56.0201 15.1778 55.4675 15.5179 55.0565C15.858 54.6526 16.3894 54.4542 16.765 54.766C17.1405 55.0777 17.0484 55.6375 16.7083 56.0414C16.3682 56.4524 15.8368 56.6508 15.4541 56.339ZM18.2247 57.742L17.3106 56.9838C17.4027 56.9129 17.4807 56.835 17.5586 56.75C17.6295 56.6649 17.6861 56.5799 17.7357 56.4878L18.6427 57.246L18.2247 57.7491V57.742ZM16.5099 58.1742C15.525 57.3523 14.4267 57.3806 13.8598 58.0608C13.293 58.7482 13.463 59.8323 14.448 60.6542C15.4329 61.4762 16.5382 61.4407 17.1051 60.7605C17.672 60.0732 17.5019 58.9891 16.517 58.1671M14.8164 60.2149C14.3842 59.8535 14.3558 59.2442 14.7243 58.7978C15.0928 58.3584 15.7021 58.2805 16.1273 58.6348C16.5524 58.9891 16.5949 59.5984 16.2265 60.0448C15.858 60.4912 15.2486 60.5763 14.8164 60.2149Z" fill="#A66822"/>
<path d="M22.6389 62.4608C22.8515 62.5388 22.9082 62.6876 22.8231 62.9214L22.32 64.3598C22.1996 64.7141 22.3838 65.0967 22.7381 65.2243L26.2172 66.443L27.1242 63.8496L22.6956 62.2979L22.6389 62.4679V62.4608ZM23.8718 63.3324L25.87 64.0339L25.3527 65.5148L23.3546 64.8133L23.8718 63.3324Z" fill="#A66822"/>
<path d="M28.9028 61.8084L27.9533 61.4754L28.3217 60.4267L26.9542 59.9449L26.8975 60.1149C27.1101 60.1929 27.1668 60.3417 27.0817 60.5755L26.522 62.1698L23.5389 61.1282L24.2262 59.1654L22.8586 58.6836L22.802 58.8536C23.0145 58.9316 23.0712 59.0804 22.9862 59.3142L22.5114 60.6747C22.391 61.029 22.5752 61.4116 22.9295 61.5391L26.3377 62.7295L26.196 63.1263L27.2589 63.4948L27.7691 62.0281L28.7185 62.3611L28.9169 61.8013L28.9028 61.8084Z" fill="#A66822"/>
<path d="M42.9399 64.7423L46.5182 63.4173L47.1488 65.1178L48.2046 64.7281L47.3684 62.4678L42.7344 64.1825L42.9399 64.7423Z" fill="#A66822"/>
<path d="M44.8738 61.3695C44.7534 61.0436 44.5124 60.7885 44.2007 60.6326L44.7817 60.42L44.5833 59.8886L43.2512 60.3846L42.989 59.6689L41.6285 60.172L41.6923 60.335C41.9049 60.2571 42.0395 60.335 42.1316 60.5688L42.2025 60.7672L40.8633 61.2632L41.0617 61.7947L41.6569 61.575C41.5223 61.8939 41.5081 62.2411 41.6285 62.567C41.9049 63.3181 42.7977 63.6866 43.7613 63.3323C44.725 62.978 45.1643 62.1135 44.8809 61.3624L44.8738 61.3695ZM42.6205 62.2056C42.4505 61.7522 42.5426 61.3199 42.9536 61.1711C43.3575 61.0223 43.7117 61.2916 43.8818 61.7451C44.0519 62.1986 43.9668 62.6379 43.5559 62.7867C43.1449 62.9426 42.7977 62.6591 42.6276 62.2056H42.6205Z" fill="#A66822"/>
<path d="M47.4246 59.7256L46.4822 60.0728L45.9933 58.7549L44.6328 59.258L44.6966 59.4209C44.9092 59.343 45.0438 59.4209 45.1359 59.6548L46.1704 62.4536L47.2262 62.0639L46.6948 60.6184L47.6372 60.2712L47.4317 59.7185L47.4246 59.7256Z" fill="#A66822"/>
<path d="M36.3851 61.1572V61.3344C36.6119 61.3344 36.7111 61.4548 36.7111 61.7099V62.8861H36.1017V61.1572H34.7271V61.3344C34.9538 61.3344 35.053 61.4548 35.053 61.7099V64.7922H33.1186V62.0217H34.4011V61.4336H31.666V61.6107C31.8928 61.6107 31.992 61.7312 31.992 61.9863V64.7072C31.992 65.0827 32.2966 65.3874 32.6722 65.3874H35.053V67.5273H36.1017V63.4813H36.7111V67.5273H37.7739V61.1643H36.3851V61.1572Z" fill="#A66822"/>
<path d="M55.6092 57.9758L56.4666 57.2672L53.5898 53.7881L49.6855 57.0192L50.0611 57.4727L53.115 54.9501L55.6092 57.9758Z" fill="#A66822"/>
<path d="M55.4462 58.8113L53.6677 56.6572L52.6049 57.5359L52.7182 57.6705C52.8954 57.5217 53.0513 57.5571 53.2071 57.7484L54.6385 59.4774L54.0787 59.9379L52.3002 57.7839L51.2373 58.6625L51.3507 58.7971C51.5278 58.6483 51.6837 58.6837 51.8396 58.8751L53.2709 60.604L52.3569 61.3551L52.7324 61.8086L57.6286 57.7626L57.2531 57.3091L55.4462 58.7971V58.8113Z" fill="#A66822"/>
<path d="M34.7402 10.082C48.427 10.0823 59.5224 21.1774 59.5225 34.8643C59.5225 48.5511 48.427 59.6462 34.7402 59.6465C21.0532 59.6465 9.95703 48.5513 9.95703 34.8643C9.95706 21.1773 21.0532 10.082 34.7402 10.082ZM18.127 25.2734V44.4561L34.7402 54.0469L51.3525 44.4561V25.2734L34.7402 15.6816L18.127 25.2734Z" fill="#A66822"/>
<path d="M22.2832 29.3154C22.5827 29.3154 22.7377 29.307 22.9424 29.3945C22.9848 29.4127 23.026 29.4322 23.0664 29.4531C23.3754 29.6133 23.6909 29.7802 24.0381 29.8057L28.5625 30.1377C29.2669 30.1895 29.8123 30.7761 29.8125 31.4824V39.3604H39.7031V31.4824C39.7034 30.7761 40.2486 30.1895 40.9531 30.1377L45.4775 29.8057C45.8247 29.7802 46.1402 29.6133 46.4492 29.4531C46.4896 29.4322 46.5308 29.4127 46.5732 29.3945C46.778 29.307 46.9329 29.3154 47.2324 29.3154L47.2822 29.3174C47.3201 29.319 47.352 29.3451 47.3613 29.3818C47.3728 29.4277 47.3456 29.4747 47.2998 29.4863C47.0409 29.5514 46.8548 29.6 46.6914 29.6699C46.5173 29.7444 46.3656 29.8439 46.1846 30.0176L46.1572 30.0459L46.1582 30.0566L46.1465 30.0576C44.4472 31.824 42.4197 33.434 40.0029 33.9385V39.3604L34.834 43.6318L29.5127 39.3604V33.9385C27.096 33.434 25.0684 31.8239 23.3691 30.0576L23.3574 30.0566L23.3584 30.0459L23.3311 30.0176C23.15 29.8439 22.9984 29.7444 22.8242 29.6699C22.6608 29.6 22.4748 29.5514 22.2158 29.4863C22.17 29.4748 22.1419 29.4277 22.1533 29.3818C22.1625 29.3449 22.1954 29.3189 22.2334 29.3174L22.2832 29.3154Z" fill="#A66822"/>
</g>
<defs>
<clipPath id="clip0_38_763">
<rect width="70" height="70" fill="white"/>
</clipPath>
</defs>
</svg>
