<svg width="189" height="52" viewBox="0 0 189 52" fill="none" xmlns="http://www.w3.org/2000/svg">
<g clip-path="url(#clip0_25_238)">
<path d="M0 25.5874C0 11.4545 11.4545 0 25.5874 0C39.7203 0 51.18 11.4545 51.18 25.5874C51.18 39.7203 39.7203 51.1748 25.5874 51.1748C11.4545 51.18 0 39.7255 0 25.5874ZM7.9938 7.9938C3.4866 12.501 0.704573 18.7178 0.704573 25.5874C0.704573 32.4622 3.4866 38.679 7.9938 43.181C12.4958 47.6882 18.7126 50.4702 25.5874 50.4702C32.4622 50.4702 38.679 47.6882 43.181 43.181C47.6882 38.679 50.4702 32.4622 50.4702 25.5874C50.4702 18.7178 47.683 12.4958 43.181 7.9938C38.679 3.4866 32.4622 0.704573 25.5874 0.704573C18.7178 0.704573 12.4958 3.4866 7.9938 7.9938Z" fill="#979EB8"/>
<path d="M9.37708 37.13L6.54843 39.1193L6.35156 38.8448L9.1854 36.8554L9.38226 37.13H9.37708Z" fill="#979EB8"/>
<path d="M41.9947 36.8502L44.8285 38.8396L44.6368 39.1142L41.803 37.13L41.9998 36.8502H41.9947Z" fill="#979EB8"/>
<path d="M2.22771 28.903L3.01518 28.7424L3.09807 29.1724L2.7147 29.2501L2.94783 30.4469L4.31035 30.1723L4.14457 29.3589L3.81819 29.4263L3.73529 29.0274L4.78179 28.8201L4.86468 29.2191L4.5383 29.2864L4.6989 30.0894L6.16504 29.7941L5.90082 28.4782L5.476 28.5611L5.39311 28.1311L6.24275 27.9653L6.80744 30.7888L6.41371 30.8665L6.336 30.478L3.08253 31.1307L3.16024 31.5193L2.76651 31.6022L2.22253 28.8927L2.22771 28.903Z" fill="#979EB8"/>
<path d="M5.77128 23.5669L5.84899 23.1732L2.59552 22.5204L2.51781 22.909L2.1189 22.8313L2.3054 21.9091L5.69875 20.5414L3.09287 20.0182L3.01516 20.4119L2.62142 20.329L2.87528 19.0546L3.26901 19.1323L3.1913 19.5208L6.89031 20.2617L6.77633 20.8264L3.39335 22.1578L5.94224 22.6707L6.01477 22.277L6.41369 22.3598L6.15983 23.6343L5.7661 23.5566L5.77128 23.5669Z" fill="#979EB8"/>
<path d="M6.71414 11.4804L7.47052 10.4183L7.80209 10.6515L7.57414 10.9778L10.6515 13.1537L10.3199 13.6252L6.69342 13.4646L8.8175 14.9722L9.04545 14.6458L9.37702 14.8789L8.62063 15.9409L8.29425 15.713L8.52738 15.3866L5.81788 13.4646L5.58993 13.791L5.26355 13.5578L5.8127 12.7963L9.46509 12.9258L7.29438 11.3871L7.06643 11.7135L6.73486 11.4804H6.71414Z" fill="#979EB8"/>
<path d="M9.39773 8.39784L13.0967 10.1127L13.2781 9.93133L13.5578 10.2214L12.589 11.1488L12.3145 10.8535L12.5528 10.6255L11.7757 10.2681L10.6618 11.3301L10.983 12.1176L11.2524 11.8637L11.527 12.1538L10.7395 12.905L10.465 12.6149L10.6463 12.444L9.11279 8.67242L9.40809 8.38748L9.39773 8.39784ZM10.4909 10.9364L11.3819 10.0867L9.85363 9.38217L10.4909 10.9364Z" fill="#979EB8"/>
<path d="M17.4226 7.82285L16.1688 8.57923L15.9616 8.2373L16.3035 8.03007L14.9825 5.86973L15.4539 8.66212L15.1534 8.8538L12.8376 7.05092L14.2053 9.30452L14.568 9.07657L14.7804 9.42368L13.6407 10.1127L13.4334 9.77079L13.7702 9.56356L12.045 6.72454L11.7031 6.93177L11.4958 6.58984L12.4957 5.9837L14.8737 7.82285L14.3659 4.84913L15.2726 4.2948L15.4798 4.63673L15.1379 4.83877L16.863 7.67779L17.205 7.47056L17.4174 7.81767L17.4226 7.82285Z" fill="#979EB8"/>
<path d="M3.37252 33.488L3.74035 33.3429L3.61601 33.0165L5.5225 33.1719L4.20661 34.55L4.08227 34.2236L3.70926 34.3687L4.24805 35.7675L4.62106 35.6276L4.50191 35.3064L6.2478 33.4206L7.21659 33.0424L7.36164 33.4206L7.72429 33.2756L7.1855 31.882L6.81767 32.0218L6.96791 32.3948L5.94214 32.7834L3.43468 32.5503L3.32071 32.255L2.95288 32.4L3.37252 33.488Z" fill="#979EB8"/>
<path d="M6.18054 16.8269L6.74524 15.5058L6.18054 16.8269Z" fill="#979EB8"/>
<path d="M6.74513 15.5058L6.18044 16.8268L6.54827 16.9874L6.72959 16.5626L7.72428 16.9926C7.70874 17.1221 7.6673 17.2672 7.59995 17.4278C7.2373 18.2774 6.36176 18.4743 5.41888 18.0702C4.52262 17.6868 4.00455 16.9512 4.33611 16.1741C4.48117 15.8321 4.73503 15.5627 4.92671 15.4799L5.33081 15.6146L5.50177 15.2208L4.69358 14.8737C4.69358 14.8737 4.28431 15.2778 3.92684 16.1119C3.40359 17.3345 4.02009 18.2722 5.13394 18.7489C6.24779 19.2255 7.40826 18.9665 7.92115 17.7801C8.10247 17.3553 8.25789 16.775 8.24235 16.4435L7.01971 15.9202L7.1285 15.6715L6.76068 15.5109L6.74513 15.5058Z" fill="#979EB8"/>
<path d="M2.02039 23.9244L2.03593 25.2507H2.43484V24.8517L4.76097 24.831C5.48108 24.8258 5.86445 25.0901 5.86964 25.6858C5.87482 26.2816 5.49663 26.5562 4.77651 26.5614L2.45038 26.5821V26.2194H2.04629L2.06183 27.6804H2.46074V27.2711L4.78687 27.2504C5.69867 27.24 6.27891 26.7841 6.26855 25.7584C6.25819 24.7326 5.66759 24.2871 4.75579 24.2974L2.42966 24.3181V23.9192H2.02557L2.02039 23.9244Z" fill="#979EB8"/>
<path d="M26.3747 6.21164L24.3802 3.17575L24.4009 5.77646H24.7998V6.17537L23.4995 6.18573V5.78164H23.8984L23.8673 2.46082H23.4684V2.06191H24.4113L26.4421 5.09779L26.4162 2.4401H26.0173V2.04118L27.3125 2.03082V2.42974H26.9187L26.9498 6.20646H26.3747V6.21164Z" fill="#979EB8"/>
<path d="M27.8979 5.88526L28.2916 5.94742L28.7994 2.66805L28.4056 2.60588L28.4678 2.20697L29.9546 2.4401L29.8925 2.83901L29.4987 2.77685L28.991 6.05622L29.3796 6.11839L29.3174 6.5173L27.8306 6.28417L27.8927 5.88526H27.8979Z" fill="#979EB8"/>
<path d="M30.566 2.50222L31.8767 2.89077L31.7627 3.27932L31.4104 3.17053L31.628 5.98882L33.3169 3.73522L32.9646 3.63161L33.0786 3.24306L34.1199 3.5539L34.006 3.93727L33.7625 3.86474L31.3483 7.08713L31.0012 6.98351L30.6851 2.95294L30.4417 2.88559L30.5608 2.49704L30.566 2.50222Z" fill="#979EB8"/>
<path d="M35.4411 8.77605L32.8507 7.51714L33.0217 7.15967L33.3791 7.33064L34.8297 4.34656L34.4723 4.17042L34.6484 3.80777L37.1351 5.01487L36.788 5.73499L36.3943 5.5433L36.5653 5.18583L35.467 4.65222L34.8556 5.90595L35.6017 6.26342L35.7467 5.96294L36.1094 6.13908L35.6431 7.10269L35.2753 6.92136L35.4203 6.62606L34.6795 6.26342L34.0215 7.61039L35.2235 8.19581L35.4151 7.80726L35.8089 7.99895L35.4359 8.77605H35.4411Z" fill="#979EB8"/>
<path d="M40.9429 13.0191L41.1864 13.3403L43.8285 11.3354L43.5851 11.0193L43.9063 10.7758L44.8181 11.9726L44.4969 12.2161L44.2534 11.8949L41.606 13.8998L41.8495 14.221L41.5283 14.4645L40.6217 13.2678L40.9429 13.0243V13.0191Z" fill="#979EB8"/>
<path d="M42.8908 16.7077L42.1448 15.4022L42.4971 15.2001L42.6939 15.5472L45.5485 13.9257L45.0563 13.0553L44.647 13.2833L44.4346 12.8999L45.2169 12.4544L46.9887 15.5835L46.2013 16.029L45.9888 15.6457L46.3929 15.4177L45.8904 14.5422L43.0307 16.1586L43.2327 16.5005L42.8804 16.7025L42.8908 16.7077Z" fill="#979EB8"/>
<path d="M44.1032 19.6296L43.5851 18.2205L43.9633 18.0806L44.1032 18.4588L45.4294 17.9666L46.8282 16.257L46.7349 16.0083L47.1131 15.8736L47.6053 17.2102L47.2271 17.3449L47.1131 17.0237L46.1236 18.236L47.6675 18.5469L47.5483 18.2205L47.9265 18.0806L48.3099 19.1323L47.9317 19.2722L47.8384 19.0235L45.7195 18.6142L44.3363 19.1219L44.4762 19.4949L44.098 19.6348L44.1032 19.6296Z" fill="#979EB8"/>
<path d="M22.4064 2.18103L21.1112 2.46597L21.1941 2.8597L21.5827 2.77681L22.0748 5.05113C22.2302 5.7557 22.0437 6.18052 21.4635 6.31004C20.8781 6.43437 20.5362 6.12353 20.3859 5.41896L19.8938 3.14464L20.246 3.06693L20.1631 2.6732L18.7333 2.98404L18.8162 3.37777L19.2151 3.2897L19.7072 5.55884C19.8989 6.44992 20.4636 6.92654 21.4687 6.70895C22.4737 6.49136 22.7898 5.81787 22.5929 4.93197L22.1007 2.65765L22.4945 2.57476L22.4116 2.18103H22.4064Z" fill="#979EB8"/>
<path d="M42.5334 10.5478L42.2329 10.237L42.492 9.94689C42.4816 9.83291 42.3935 9.53761 42.2122 9.34593C42.0101 9.1387 41.6682 9.1128 41.3988 9.37701C41.2227 9.54797 41.1864 9.79665 41.2745 10.2007C41.2745 10.2007 41.3315 10.4391 41.3522 10.5168C41.5439 11.2524 41.5905 11.7239 41.1553 12.1383C40.6321 12.6408 39.855 12.558 39.3214 12.0036C38.9639 11.6306 38.7152 11.2369 38.6427 11.0037L39.2747 10.3976L39.57 10.7084L39.2851 11.0297C39.2851 11.2265 39.3991 11.5115 39.5804 11.698C39.8705 11.9984 40.2746 12.0088 40.544 11.7498C40.8082 11.4959 40.803 11.2524 40.6943 10.781C40.6735 10.6981 40.6217 10.4701 40.6217 10.4701C40.4352 9.73966 40.4663 9.29412 40.8186 8.95738C41.3211 8.47557 42.0153 8.56364 42.4868 9.05063C42.8028 9.37701 43.0411 9.83809 43.1033 10.0039L42.5334 10.5478Z" fill="#979EB8"/>
<path d="M38.4407 10.4287L38.5339 8.70356C39.0209 8.88489 39.425 8.76055 39.7877 8.26321C40.3005 7.56381 40.0881 7.01466 39.2799 6.42406L38.1506 5.59515L37.9122 5.91636L38.2334 6.15467L36.27 8.8279L35.9488 8.58959L35.7104 8.91079L36.9227 9.80187L37.161 9.48067L36.8398 9.24236L37.6428 8.14923L37.8863 8.32538L37.7257 10.3821L38.4769 10.9313L38.7152 10.6101L38.4459 10.4132L38.4407 10.4287ZM38.8033 6.56912L39.0261 6.7349C39.4975 7.08201 39.539 7.35141 39.1919 7.82803C38.8448 8.30465 38.5754 8.3461 38.0987 7.99381L37.876 7.82803L38.8033 6.56912Z" fill="#979EB8"/>
<path d="M45.0202 24.4943L44.8026 22.5101L45.2067 22.4634L45.2792 23.1266L48.4757 22.7743L48.2685 22.1267L48.6778 22.0801L49.0922 23.3804L45.3466 23.7949L45.4191 24.458L45.015 24.4995L45.0202 24.4943Z" fill="#979EB8"/>
<path d="M47.9574 33.2911L47.3668 33.0527L46.6053 34.9541C45.6728 33.4258 44.647 32.1772 43.989 31.913L43.7041 32.6227C44.9008 33.0994 45.9991 34.6795 46.5431 35.6275L46.9472 35.7933L47.9523 33.2911H47.9574Z" fill="#979EB8"/>
<path d="M46.3567 28.5715L46.0044 28.4937L45.6107 30.2448L44.9113 30.0894L44.9994 29.7008L44.6004 29.6128L44.2844 31.0167L44.6833 31.1048L44.7714 30.7111L45.4708 30.8665L45.3413 31.4467L45.8697 31.5659L45.9992 30.9857L48.4652 31.5348L48.5533 31.1307L46.3515 28.5663L46.3567 28.5715ZM46.1391 30.364L46.3878 29.2398L47.6415 30.6904L46.1339 30.3588L46.1391 30.364Z" fill="#979EB8"/>
<path d="M49.2217 26.608C49.2631 25.6806 48.5119 25.2092 47.8384 25.1833C47.165 25.1522 46.4707 25.6029 46.4345 26.3852C46.4138 26.8411 46.6417 27.1468 46.7298 27.2555C46.0926 27.1934 45.2844 26.8566 45.3155 26.2453C45.3258 26.0018 45.3932 25.7998 45.4502 25.7169L45.7765 25.7013L45.7973 25.2713L45.16 25.2454C45.0564 25.4112 44.9373 25.7065 44.9165 26.2401C44.8906 26.8255 45.1549 27.2555 45.59 27.5508C46.0459 27.8617 46.6262 27.9808 47.2893 28.0119C48.3772 28.0586 49.1802 27.6493 49.2269 26.6183L49.2217 26.608ZM46.8334 26.4836C46.8541 26.0225 47.3204 25.8309 47.8851 25.8516C48.4498 25.8775 48.8383 26.1158 48.8176 26.5665C48.7969 27.0172 48.2115 27.3229 47.6571 27.297C46.9836 27.2659 46.823 26.8307 46.8386 26.4784L46.8334 26.4836Z" fill="#979EB8"/>
<path d="M13.9722 41.0673C14.1017 41.1761 14.0965 41.29 13.9826 41.4299L13.9048 41.5232L13.0915 40.8445C13.1122 40.4508 12.9257 40.0259 12.5371 39.6996C11.9103 39.1815 11.1435 39.2229 10.7239 39.7255C10.3094 40.2228 10.4027 40.9947 11.0244 41.5128C11.4077 41.834 11.8481 41.9376 12.2263 41.8547L13.05 42.5386L12.7133 42.9427L13.3453 43.4659L14.8633 41.6371L14.0499 40.9585L13.967 41.0569L13.9722 41.0673ZM11.299 41.1916C11.0192 40.9585 11.0969 40.5544 11.3456 40.2539C11.5943 39.9586 11.9828 39.8135 12.2574 40.0415C12.532 40.2694 12.4646 40.6787 12.2159 40.974C11.9673 41.2745 11.5787 41.4196 11.299 41.1916ZM13.3246 42.2174L12.6563 41.663C12.7236 41.6112 12.7806 41.5542 12.8376 41.4921C12.8894 41.4299 12.9309 41.3677 12.9671 41.3004L13.6303 41.8547L13.3246 42.2226V42.2174ZM12.0709 42.5334C11.3508 41.9324 10.5478 41.9532 10.1333 42.4505C9.71885 42.953 9.84318 43.7457 10.5633 44.3466C11.2834 44.9476 12.0916 44.9217 12.5061 44.4244C12.9205 43.9218 12.7962 43.1292 12.0761 42.5282M10.8327 44.0254C10.5167 43.7612 10.4959 43.3157 10.7653 42.9893C11.0347 42.6681 11.4803 42.6111 11.7911 42.8701C12.102 43.1292 12.133 43.5747 11.8636 43.9011C11.5943 44.2275 11.1487 44.2897 10.8327 44.0254Z" fill="#979EB8"/>
<path d="M16.5522 45.6677C16.7076 45.7247 16.749 45.8335 16.6869 46.0045L16.319 47.0562C16.231 47.3152 16.3657 47.595 16.6247 47.6882L19.1684 48.5793L19.8315 46.6832L16.5936 45.5486L16.5522 45.6729V45.6677ZM17.4536 46.305L18.9146 46.8179L18.5364 47.9006L17.0754 47.3877L17.4536 46.305Z" fill="#979EB8"/>
<path d="M21.1319 45.1911L20.4377 44.9476L20.7071 44.1809L19.7072 43.8286L19.6658 43.9529C19.8212 44.0099 19.8626 44.1187 19.8005 44.2896L19.3912 45.4553L17.2101 44.6937L17.7127 43.2587L16.7128 42.9064L16.6713 43.0307C16.8268 43.0877 16.8682 43.1965 16.806 43.3675L16.4589 44.3622C16.3709 44.6212 16.5056 44.901 16.7646 44.9942L19.2565 45.8646L19.1529 46.1547L19.93 46.4241L20.303 45.3517L20.9972 45.5952L21.1423 45.1859L21.1319 45.1911Z" fill="#979EB8"/>
<path d="M31.395 47.3359L34.0112 46.3672L34.4723 47.6105L35.2442 47.3256L34.6329 45.6729L31.2448 46.9267L31.395 47.3359Z" fill="#979EB8"/>
<path d="M32.8092 44.8699C32.7212 44.6316 32.545 44.4451 32.3171 44.3311L32.7419 44.1757L32.5968 43.7871L31.6228 44.1498L31.4312 43.6265L30.4365 43.9944L30.4831 44.1135C30.6385 44.0565 30.7369 44.1135 30.8043 44.2845L30.8561 44.4295L29.877 44.7922L30.022 45.1807L30.4572 45.0201C30.3588 45.2533 30.3484 45.5071 30.4365 45.7454C30.6385 46.2946 31.2913 46.564 31.9959 46.3049C32.7004 46.0459 33.0216 45.4139 32.8144 44.8647L32.8092 44.8699ZM31.1618 45.4812C31.0374 45.1496 31.1048 44.8336 31.4053 44.7248C31.7006 44.616 31.9596 44.8129 32.0839 45.1445C32.2083 45.476 32.1461 45.7972 31.8456 45.906C31.5451 46.02 31.2913 45.8128 31.1669 45.4812H31.1618Z" fill="#979EB8"/>
<path d="M34.6742 43.668L33.9852 43.9219L33.6277 42.9583L32.6331 43.3261L32.6797 43.4452C32.8351 43.3883 32.9335 43.4452 33.0009 43.6162L33.7573 45.6626L34.5292 45.3776L34.1406 44.3208L34.8297 44.0669L34.6794 43.6628L34.6742 43.668Z" fill="#979EB8"/>
<path d="M26.6027 44.7145V44.844C26.7685 44.844 26.841 44.9321 26.841 45.1186V45.9786H26.3955V44.7145H25.3904V44.844C25.5562 44.844 25.6287 44.9321 25.6287 45.1186V47.3722H24.2144V45.3466H25.1521V44.9166H23.1523V45.0461C23.3181 45.0461 23.3907 45.1341 23.3907 45.3207V47.31C23.3907 47.5846 23.6134 47.8074 23.888 47.8074H25.6287V49.3719H26.3955V46.4138H26.841V49.3719H27.6181V44.7197H26.6027V44.7145Z" fill="#979EB8"/>
<path d="M40.6581 42.3884L41.2849 41.8703L39.1816 39.3266L36.327 41.689L36.6016 42.0206L38.8345 40.1762L40.6581 42.3884Z" fill="#979EB8"/>
<path d="M40.5389 42.9997L39.2385 41.4247L38.4614 42.0671L38.5443 42.1656C38.6738 42.0568 38.7878 42.0827 38.9018 42.2226L39.9483 43.4867L39.539 43.8234L38.2387 42.2485L37.4615 42.8909L37.5444 42.9893C37.674 42.8805 37.7879 42.9064 37.9019 43.0463L38.9484 44.3104L38.2801 44.8595L38.5547 45.1911L42.1345 42.2329L41.86 41.9014L40.5389 42.9893V42.9997Z" fill="#979EB8"/>
<path d="M25.399 7.37155C35.4061 7.37155 43.5189 15.4837 43.5192 25.4907C43.5192 35.4979 35.4062 43.6108 25.399 43.6108C15.3921 43.6106 7.27991 35.4977 7.27991 25.4907C7.28014 15.4839 15.3922 7.37179 25.399 7.37155ZM13.2535 18.479V32.5034L25.399 39.5161L37.5455 32.5034V18.479L25.399 11.4663L13.2535 18.479Z" fill="#979EB8"/>
<path d="M16.2921 21.4336C16.511 21.4336 16.6239 21.4282 16.7736 21.4922C17.0674 21.6178 17.3563 21.7764 17.6749 21.7998L20.8829 22.0352C21.3981 22.073 21.797 22.502 21.797 23.0186V28.7783H29.0284V23.0186C29.0285 22.5019 29.4273 22.073 29.9425 22.0352L33.1505 21.7998C33.4692 21.7764 33.7581 21.6178 34.0519 21.4922C34.2015 21.4282 34.3144 21.4336 34.5333 21.4336L34.5695 21.4355C34.5972 21.4366 34.6213 21.4555 34.6281 21.4824C34.6364 21.516 34.6157 21.5502 34.5822 21.5586C34.393 21.6061 34.2573 21.6423 34.1378 21.6934C34.0105 21.7478 33.8992 21.8202 33.7667 21.9473L33.7472 21.9678L33.7482 21.9756L33.7394 21.9766C32.497 23.268 31.0141 24.4446 29.2472 24.8135V28.7783L25.4679 31.9014L21.5773 28.7783V24.8135C19.8106 24.4445 18.3283 23.2679 17.0861 21.9766L17.0773 21.9756L17.0782 21.9678L17.0587 21.9473C16.9263 21.8202 16.815 21.7478 16.6876 21.6934C16.5682 21.6423 16.4324 21.6061 16.2433 21.5586C16.2097 21.5502 16.189 21.516 16.1974 21.4824C16.2042 21.4555 16.2282 21.4366 16.256 21.4355L16.2921 21.4336Z" fill="#979EB8"/>
</g>
<path d="M61.4759 17.54H64.7519V29.312H72.0779V32.21H61.4759V17.54ZM73.1879 17.54H76.4639V32.21H73.1879V17.54ZM87.897 32.21L83.793 26.612L81.795 28.916V32.21H78.519V17.54H81.795V24.452L87.663 17.54H91.677L85.917 24.182L91.983 32.21H87.897ZM92.8501 32.21V17.54H103.758V20.384H96.1261V23.372H103.128V26.216H96.1261V29.366H103.92V32.21H92.8501ZM105.582 17.54H108.858V29.312H116.184V32.21H105.582V17.54ZM117.294 17.54H120.57V32.21H117.294V17.54ZM129.897 32.57C125.343 32.57 121.977 29.312 121.977 24.866C121.977 20.42 125.343 17.162 129.897 17.162C134.451 17.162 137.817 20.42 137.817 24.866C137.817 29.312 134.451 32.57 129.897 32.57ZM129.897 29.618C132.561 29.618 134.541 27.62 134.541 24.866C134.541 22.094 132.561 20.114 129.897 20.114C127.233 20.114 125.253 22.094 125.253 24.866C125.253 27.62 127.233 29.618 129.897 29.618ZM139.223 32.21V17.54H141.959L149.285 26.36V17.36H152.561V32.03H149.825L142.499 23.21V32.21H139.223ZM172.308 17.54L166.818 27.602V32.21H163.542V27.602L158.052 17.54H161.796L165.324 24.47L168.834 17.54H172.308ZM173.124 25.712V17.54H176.4V25.712C176.4 28.052 177.696 29.618 179.838 29.618C181.98 29.618 183.276 28.052 183.276 25.712V17.54H186.552V25.712C186.552 29.87 183.87 32.57 179.838 32.57C175.806 32.57 173.124 29.87 173.124 25.712Z" fill="#979EB8"/>
<defs>
<clipPath id="clip0_25_238">
<rect width="51.18" height="51.18" fill="white"/>
</clipPath>
</defs>
</svg>
