<svg width="417" height="183" viewBox="0 0 417 183" fill="none" xmlns="http://www.w3.org/2000/svg">
<path d="M291.727 46.0355L272.546 136.527H294.887C334.152 136.527 346.564 107.191 350.175 90.2658C352.657 78.7569 355.816 46.0355 309.555 46.0355H291.727ZM199.205 182.563L238.019 0H340.02C408.622 0 423.516 44.9072 413.586 90.9428C401.626 147.133 360.555 182.563 288.794 182.563H199.205Z" fill="url(#paint0_linear_89_481)"/>
<path d="M162.159 181.596L160.225 178.696C155.34 181.647 151.422 182.563 146.282 182.563C137.479 182.563 131.882 177.271 133.561 169.129C134.68 163.684 140.736 159.868 146.181 157.527C144.552 155.39 143.535 152.948 144.196 149.996C145.57 143.381 153.203 139.31 160.072 139.31C168.621 139.31 174.066 142.669 172.54 149.996C171.522 154.627 166.637 158.596 161.853 160.631L164.55 164.55C165.517 163.735 166.433 162.667 166.891 161.445H177.475C175.796 165.313 173.354 169.027 169.944 171.47L177.17 181.596H162.159ZM154.831 170.554L151.218 165.16C149.386 165.923 146.639 167.348 146.231 169.282C145.824 171.317 147.504 172.742 149.488 172.742C151.371 172.742 153.152 171.724 154.831 170.554ZM155.544 149.945C155.289 151.166 156.409 152.54 157.172 153.609C158.953 152.948 160.836 151.523 161.192 149.894C161.497 148.47 160.632 147.452 159.004 147.452C157.63 147.452 155.849 148.368 155.544 149.945Z" fill="url(#paint1_linear_89_481)"/>
<path d="M93.8764 46.713L86.2038 82.1423H111.253C127.726 82.1423 146.005 83.045 149.841 64.3149C153.452 47.8414 138.558 46.713 122.536 46.713H93.8764ZM0 182.563L38.8143 0.000488281H147.359C204.678 0.000488281 217.541 34.3015 211.448 62.2839C202.195 106.288 163.381 127.275 115.089 127.275H76.7259L64.9914 182.563H0Z" fill="url(#paint2_linear_89_481)"/>
<defs>
<linearGradient id="paint0_linear_89_481" x1="228.857" y1="-11.9501" x2="426.924" y2="68.4601" gradientUnits="userSpaceOnUse">
<stop stop-color="#FF9100"/>
<stop offset="1" stop-color="#FFAE00"/>
</linearGradient>
<linearGradient id="paint1_linear_89_481" x1="139.301" y1="136.479" x2="181.175" y2="151.087" gradientUnits="userSpaceOnUse">
<stop stop-color="#FF9100"/>
<stop offset="1" stop-color="#FFAE00"/>
</linearGradient>
<linearGradient id="paint2_linear_89_481" x1="29.06" y1="-11.9497" x2="224.264" y2="65.7154" gradientUnits="userSpaceOnUse">
<stop stop-color="#FF9100"/>
<stop offset="1" stop-color="#FFAE00"/>
</linearGradient>
</defs>
</svg>
