<svg width="1440" height="785" viewBox="0 0 1440 785" fill="none" xmlns="http://www.w3.org/2000/svg">
<g clip-path="url(#clip0_317_1515)" filter="url(#filter0_i_317_1515)">
<path d="M174.865 282.237L-36.2529 66.3194L132.463 25.2588L206.223 161.082L174.865 282.237Z" stroke="#E19653" stroke-opacity="0.8" stroke-width="0.5" stroke-miterlimit="10"/>
<path d="M600.808 144.942L574.459 326.422L419.358 398.773L174.866 282.237L206.224 161.082L600.808 144.942Z" stroke="#E19653" stroke-opacity="0.8" stroke-width="0.5" stroke-miterlimit="10"/>
<path d="M871.203 820.416L1059.99 713.06L600.808 144.942L574.459 326.422L871.203 820.416Z" stroke="#E19653" stroke-opacity="0.8" stroke-width="0.5" stroke-miterlimit="10"/>
<path d="M1308.88 1018.1L871.202 820.416L1059.99 713.06L1308.88 1018.1Z" stroke="#E19653" stroke-opacity="0.8" stroke-width="0.5" stroke-miterlimit="10"/>
<path d="M1479.37 538.721L1312.69 675.654L1059.99 713.06L600.808 144.942L788.413 7.28564" stroke="#E19653" stroke-opacity="0.8" stroke-width="0.5" stroke-miterlimit="10"/>
<g opacity="0.7">
<path d="M128.142 36.7907C134.162 36.7907 139.042 31.914 139.042 25.8983C139.042 19.8826 134.162 15.0059 128.142 15.0059C122.123 15.0059 117.243 19.8826 117.243 25.8983C117.243 31.914 122.123 36.7907 128.142 36.7907Z" fill="#E19653" fill-opacity="0.8"/>
</g>
<g opacity="0.7">
<path d="M206.224 171.974C212.243 171.974 217.123 167.098 217.123 161.082C217.123 155.066 212.243 150.189 206.224 150.189C200.204 150.189 195.324 155.066 195.324 161.082C195.324 167.098 200.204 171.974 206.224 171.974Z" fill="#E19653" fill-opacity="0.8"/>
</g>
<g opacity="0.7">
<path d="M175.337 293.576C181.356 293.576 186.236 288.7 186.236 282.684C186.236 276.668 181.356 271.792 175.337 271.792C169.317 271.792 164.438 276.668 164.438 282.684C164.438 288.7 169.317 293.576 175.337 293.576Z" fill="#E19653" fill-opacity="0.8"/>
</g>
<g opacity="0.7">
<path d="M419.358 409.665C425.378 409.665 430.258 404.788 430.258 398.773C430.258 392.757 425.378 387.88 419.358 387.88C413.339 387.88 408.459 392.757 408.459 398.773C408.459 404.788 413.339 409.665 419.358 409.665Z" fill="#E19653" fill-opacity="0.8"/>
</g>
<path d="M569.908 337.073C575.928 337.073 580.807 332.197 580.807 326.181C580.807 320.165 575.928 315.289 569.908 315.289C563.889 315.289 559.009 320.165 559.009 326.181C559.009 332.197 563.889 337.073 569.908 337.073Z" fill="#E19653" fill-opacity="0.8"/>
<g opacity="0.7">
<path d="M601.291 159.104C607.31 159.104 612.19 154.227 612.19 148.211C612.19 142.196 607.31 137.319 601.291 137.319C595.271 137.319 590.392 142.196 590.392 148.211C590.392 154.227 595.271 159.104 601.291 159.104Z" fill="#E19653" fill-opacity="0.8"/>
</g>
<g opacity="0.7">
<path d="M1059.65 727.282C1065.67 727.282 1070.55 722.405 1070.55 716.39C1070.55 710.374 1065.67 705.497 1059.65 705.497C1053.63 705.497 1048.75 710.374 1048.75 716.39C1048.75 722.405 1053.63 727.282 1059.65 727.282Z" fill="#E19653" fill-opacity="0.8"/>
</g>
<g opacity="0.7">
<path d="M1311.68 685.823C1317.7 685.823 1322.58 680.946 1322.58 674.931C1322.58 668.915 1317.7 664.038 1311.68 664.038C1305.66 664.038 1300.78 668.915 1300.78 674.931C1300.78 680.946 1305.66 685.823 1311.68 685.823Z" fill="#E19653" fill-opacity="0.8"/>
</g>
<g opacity="0.7">
<path d="M788.486 21.7848C794.506 21.7848 799.386 16.9081 799.386 10.8924C799.386 4.87669 794.506 0 788.486 0C782.467 0 777.587 4.87669 777.587 10.8924C777.587 16.9081 782.467 21.7848 788.486 21.7848Z" fill="#E19653" fill-opacity="0.8"/>
</g>
<g opacity="0.7">
<path d="M128.142 33.6063C132.402 33.6063 135.855 30.1553 135.855 25.8983C135.855 21.6414 132.402 18.1904 128.142 18.1904C123.883 18.1904 120.43 21.6414 120.43 25.8983C120.43 30.1553 123.883 33.6063 128.142 33.6063Z" fill="white" fill-opacity="0.8"/>
</g>
<g opacity="0.7">
<path d="M206.224 168.79C210.483 168.79 213.936 165.339 213.936 161.082C213.936 156.825 210.483 153.374 206.224 153.374C201.964 153.374 198.511 156.825 198.511 161.082C198.511 165.339 201.964 168.79 206.224 168.79Z" fill="white" fill-opacity="0.8"/>
</g>
<g opacity="0.7">
<path d="M175.337 290.391C179.596 290.391 183.05 286.94 183.05 282.683C183.05 278.427 179.596 274.976 175.337 274.976C171.077 274.976 167.624 278.427 167.624 282.683C167.624 286.94 171.077 290.391 175.337 290.391Z" fill="white" fill-opacity="0.8"/>
</g>
<g opacity="0.7">
<path d="M419.358 405.709C423.191 405.709 426.299 402.603 426.299 398.773C426.299 394.942 423.191 391.837 419.358 391.837C415.525 391.837 412.418 394.942 412.418 398.773C412.418 402.603 415.525 405.709 419.358 405.709Z" fill="white" fill-opacity="0.8"/>
</g>
<path d="M569.908 333.925C574.188 333.925 577.657 330.458 577.657 326.181C577.657 321.904 574.188 318.437 569.908 318.437C565.629 318.437 562.159 321.904 562.159 326.181C562.159 330.458 565.629 333.925 569.908 333.925Z" fill="white" fill-opacity="0.8"/>
<g opacity="0.7">
<path d="M601.291 155.654C605.404 155.654 608.738 152.322 608.738 148.212C608.738 144.101 605.404 140.769 601.291 140.769C597.178 140.769 593.844 144.101 593.844 148.212C593.844 152.322 597.178 155.654 601.291 155.654Z" fill="white" fill-opacity="0.8"/>
</g>
<g opacity="0.7">
<path d="M1059.65 723.591C1063.63 723.591 1066.86 720.366 1066.86 716.389C1066.86 712.412 1063.63 709.188 1059.65 709.188C1055.67 709.188 1052.45 712.412 1052.45 716.389C1052.45 720.366 1055.67 723.591 1059.65 723.591Z" fill="white" fill-opacity="0.8"/>
</g>
<g opacity="0.7">
<path d="M1311.68 682.638C1315.94 682.638 1319.39 679.188 1319.39 674.931C1319.39 670.674 1315.94 667.223 1311.68 667.223C1307.42 667.223 1303.96 670.674 1303.96 674.931C1303.96 679.188 1307.42 682.638 1311.68 682.638Z" fill="white" fill-opacity="0.8"/>
</g>
<g opacity="0.7">
<path d="M788.486 18.6004C792.746 18.6004 796.199 15.1494 796.199 10.8925C796.199 6.63552 792.746 3.18457 788.486 3.18457C784.227 3.18457 780.773 6.63552 780.773 10.8925C780.773 15.1494 784.227 18.6004 788.486 18.6004Z" fill="white" fill-opacity="0.8"/>
</g>
</g>
<defs>
<filter id="filter0_i_317_1515" x="-46.5" y="0" width="1533" height="1033" filterUnits="userSpaceOnUse" color-interpolation-filters="sRGB">
<feFlood flood-opacity="0" result="BackgroundImageFix"/>
<feBlend mode="normal" in="SourceGraphic" in2="BackgroundImageFix" result="shape"/>
<feColorMatrix in="SourceAlpha" type="matrix" values="0 0 0 0 0 0 0 0 0 0 0 0 0 0 0 0 0 0 127 0" result="hardAlpha"/>
<feOffset dy="4"/>
<feGaussianBlur stdDeviation="2"/>
<feComposite in2="hardAlpha" operator="arithmetic" k2="-1" k3="1"/>
<feColorMatrix type="matrix" values="0 0 0 0 0 0 0 0 0 0 0 0 0 0 0 0 0 0 0.25 0"/>
<feBlend mode="normal" in2="shape" result="effect1_innerShadow_317_1515"/>
</filter>
<clipPath id="clip0_317_1515">
<rect width="1533" height="1029" fill="white" transform="translate(-46.5)"/>
</clipPath>
</defs>
</svg>
