<svg width="24" height="24" viewBox="0 0 24 24" fill="none" xmlns="http://www.w3.org/2000/svg">
<path d="M5.81128 1.44922H17.7156C18.8723 1.44972 19.9816 1.90965 20.7996 2.72754C21.6175 3.54544 22.0773 4.65485 22.0779 5.81152V17.7158C22.0779 18.8728 21.6183 19.9825 20.8005 20.8008C19.9825 21.6191 18.8726 22.0796 17.7156 22.0801H5.81128C4.65392 22.08 3.54372 21.6201 2.72534 20.8018C1.907 19.9834 1.44702 18.8732 1.44702 17.7158V5.81152C1.44757 4.65461 1.90812 3.54548 2.72632 2.72754C3.54465 1.90952 4.65421 1.44925 5.81128 1.44922ZM11.7634 6.38379C10.3366 6.38379 8.96769 6.95101 7.95874 7.95996C6.95008 8.96882 6.3836 10.3371 6.38354 11.7637C6.38354 13.1905 6.94986 14.5594 7.95874 15.5684C8.96769 16.5773 10.3366 17.1436 11.7634 17.1436C13.1903 17.1436 14.5592 16.5773 15.5681 15.5684C16.577 14.5594 17.1433 13.1905 17.1433 11.7637C17.1433 10.3371 16.5768 8.96882 15.5681 7.95996C14.5592 6.95102 13.1903 6.38379 11.7634 6.38379ZM11.7654 8.29785C12.6845 8.29792 13.5657 8.66359 14.2156 9.31348C14.8655 9.96337 15.2311 10.8446 15.2312 11.7637C15.2312 12.6828 14.8655 13.5649 14.2156 14.2148C13.5657 14.8646 12.6843 15.2294 11.7654 15.2295C10.8462 15.2295 9.96416 14.8648 9.31421 14.2148C8.66426 13.5649 8.29956 12.6828 8.29956 11.7637C8.29962 10.8447 8.66447 9.96335 9.31421 9.31348C9.96416 8.66353 10.8462 8.29785 11.7654 8.29785ZM17.7136 4.43262C17.3462 4.43264 16.994 4.57911 16.7341 4.83887C16.4744 5.09865 16.328 5.45099 16.3279 5.81836C16.3279 6.18587 16.4743 6.53896 16.7341 6.79883C16.994 7.05852 17.3463 7.20408 17.7136 7.2041C18.081 7.2041 18.4333 7.05849 18.6931 6.79883C18.953 6.53896 19.0994 6.18587 19.0994 5.81836C19.0993 5.45099 18.9529 5.09865 18.6931 4.83887C18.4333 4.57914 18.081 4.43262 17.7136 4.43262Z" fill="url(#paint0_linear_14_503)" fill-opacity="0.5" stroke="url(#paint1_linear_14_503)" stroke-width="0.2"/>
<defs>
<linearGradient id="paint0_linear_14_503" x1="0.616726" y1="2.68685" x2="23.5065" y2="23.3385" gradientUnits="userSpaceOnUse">
<stop stop-color="#FFAB7A"/>
<stop offset="1" stop-color="#996900"/>
</linearGradient>
<linearGradient id="paint1_linear_14_503" x1="-2.20726" y1="-1.35746" x2="22.5833" y2="22.9824" gradientUnits="userSpaceOnUse">
<stop stop-color="#E19653"/>
<stop offset="1" stop-color="white" stop-opacity="0"/>
</linearGradient>
</defs>
</svg>
