<svg width="1440" height="1024" viewBox="0 0 1440 1024" fill="none" xmlns="http://www.w3.org/2000/svg">
<rect width="1440" height="1024" fill="#070708"/>
<g clip-path="url(#clip0_75_302)" filter="url(#filter0_i_75_302)">
<path d="M266.149 318.98L91.2395 139.98L231.02 105.94L292.13 218.54L266.149 318.98Z" stroke="#E19653" stroke-width="0.5" stroke-miterlimit="10"/>
<path d="M619.039 205.16L597.209 355.61L468.709 415.59L266.149 318.98L292.129 218.54L619.039 205.16Z" stroke="#E19653" stroke-width="0.5" stroke-miterlimit="10"/>
<path d="M843.059 765.14L999.469 676.14L619.039 205.16L597.209 355.61L843.059 765.14Z" stroke="#E19653" stroke-width="0.5" stroke-miterlimit="10"/>
<path d="M1205.67 929.02L843.06 765.14L999.47 676.14L1205.67 929.02Z" stroke="#E19653" stroke-width="0.5" stroke-miterlimit="10"/>
<path d="M1346.92 531.61L1208.83 645.13L999.47 676.14L619.04 205.16L774.47 91.04" stroke="#E19653" stroke-width="0.5" stroke-miterlimit="10"/>
<g opacity="0.7">
<path d="M91.7795 152.71C96.7666 152.71 100.81 148.667 100.81 143.68C100.81 138.693 96.7666 134.65 91.7795 134.65C86.7924 134.65 82.7495 138.693 82.7495 143.68C82.7495 148.667 86.7924 152.71 91.7795 152.71Z" fill="#E19653"/>
</g>
<g opacity="0.7">
<path d="M227.439 115.5C232.427 115.5 236.469 111.457 236.469 106.47C236.469 101.483 232.427 97.4399 227.439 97.4399C222.452 97.4399 218.409 101.483 218.409 106.47C218.409 111.457 222.452 115.5 227.439 115.5Z" fill="#E19653"/>
</g>
<g opacity="0.7">
<path d="M292.13 227.57C297.117 227.57 301.16 223.527 301.16 218.54C301.16 213.553 297.117 209.51 292.13 209.51C287.142 209.51 283.1 213.553 283.1 218.54C283.1 223.527 287.142 227.57 292.13 227.57Z" fill="#E19653"/>
</g>
<g opacity="0.7">
<path d="M266.54 328.38C271.527 328.38 275.57 324.337 275.57 319.35C275.57 314.363 271.527 310.32 266.54 310.32C261.552 310.32 257.51 314.363 257.51 319.35C257.51 324.337 261.552 328.38 266.54 328.38Z" fill="#E19653"/>
</g>
<g opacity="0.7">
<path d="M468.709 424.62C473.697 424.62 477.739 420.577 477.739 415.59C477.739 410.603 473.697 406.56 468.709 406.56C463.722 406.56 459.679 410.603 459.679 415.59C459.679 420.577 463.722 424.62 468.709 424.62Z" fill="#E19653"/>
</g>
<path d="M593.439 364.44C598.427 364.44 602.469 360.397 602.469 355.41C602.469 350.423 598.427 346.38 593.439 346.38C588.452 346.38 584.409 350.423 584.409 355.41C584.409 360.397 588.452 364.44 593.439 364.44Z" fill="#E19653"/>
<g opacity="0.7">
<path d="M843.06 774.17C848.047 774.17 852.09 770.127 852.09 765.14C852.09 760.153 848.047 756.11 843.06 756.11C838.072 756.11 834.03 760.153 834.03 765.14C834.03 770.127 838.072 774.17 843.06 774.17Z" fill="#E19653"/>
</g>
<g opacity="0.7">
<path d="M619.439 216.9C624.427 216.9 628.469 212.857 628.469 207.87C628.469 202.883 624.427 198.84 619.439 198.84C614.452 198.84 610.409 202.883 610.409 207.87C610.409 212.857 614.452 216.9 619.439 216.9Z" fill="#E19653"/>
</g>
<g opacity="0.7">
<path d="M999.189 687.93C1004.18 687.93 1008.22 683.887 1008.22 678.9C1008.22 673.913 1004.18 669.87 999.189 669.87C994.202 669.87 990.159 673.913 990.159 678.9C990.159 683.887 994.202 687.93 999.189 687.93Z" fill="#E19653"/>
</g>
<g opacity="0.7">
<path d="M1205.67 938.05C1210.66 938.05 1214.7 934.007 1214.7 929.02C1214.7 924.033 1210.66 919.99 1205.67 919.99C1200.68 919.99 1196.64 924.033 1196.64 929.02C1196.64 934.007 1200.68 938.05 1205.67 938.05Z" fill="#E19653"/>
</g>
<g opacity="0.7">
<path d="M1207.99 653.56C1212.98 653.56 1217.02 649.517 1217.02 644.53C1217.02 639.543 1212.98 635.5 1207.99 635.5C1203 635.5 1198.96 639.543 1198.96 644.53C1198.96 649.517 1203 653.56 1207.99 653.56Z" fill="#E19653"/>
</g>
<g opacity="0.7">
<path d="M774.53 103.06C779.517 103.06 783.56 99.0171 783.56 94.03C783.56 89.0429 779.517 85 774.53 85C769.542 85 765.5 89.0429 765.5 94.03C765.5 99.0171 769.542 103.06 774.53 103.06Z" fill="#E19653"/>
</g>
<g opacity="0.7">
<path d="M91.7795 150.07C95.3086 150.07 98.1695 147.209 98.1695 143.68C98.1695 140.151 95.3086 137.29 91.7795 137.29C88.2504 137.29 85.3895 140.151 85.3895 143.68C85.3895 147.209 88.2504 150.07 91.7795 150.07Z" fill="white"/>
</g>
<g opacity="0.7">
<path d="M227.44 112.86C230.969 112.86 233.83 109.999 233.83 106.47C233.83 102.941 230.969 100.08 227.44 100.08C223.91 100.08 221.05 102.941 221.05 106.47C221.05 109.999 223.91 112.86 227.44 112.86Z" fill="white"/>
</g>
<g opacity="0.7">
<path d="M292.13 224.93C295.659 224.93 298.52 222.069 298.52 218.54C298.52 215.011 295.659 212.15 292.13 212.15C288.6 212.15 285.74 215.011 285.74 218.54C285.74 222.069 288.6 224.93 292.13 224.93Z" fill="white"/>
</g>
<g opacity="0.7">
<path d="M266.539 325.74C270.069 325.74 272.929 322.879 272.929 319.35C272.929 315.821 270.069 312.96 266.539 312.96C263.01 312.96 260.149 315.821 260.149 319.35C260.149 322.879 263.01 325.74 266.539 325.74Z" fill="white"/>
</g>
<g opacity="0.7">
<path d="M468.709 421.34C471.885 421.34 474.459 418.766 474.459 415.59C474.459 412.414 471.885 409.84 468.709 409.84C465.534 409.84 462.959 412.414 462.959 415.59C462.959 418.766 465.534 421.34 468.709 421.34Z" fill="white"/>
</g>
<path d="M593.44 361.83C596.985 361.83 599.86 358.956 599.86 355.41C599.86 351.864 596.985 348.99 593.44 348.99C589.894 348.99 587.02 351.864 587.02 355.41C587.02 358.956 589.894 361.83 593.44 361.83Z" fill="white"/>
<g opacity="0.7">
<path d="M843.059 771.59C846.622 771.59 849.509 768.702 849.509 765.14C849.509 761.578 846.622 758.69 843.059 758.69C839.497 758.69 836.609 761.578 836.609 765.14C836.609 768.702 839.497 771.59 843.059 771.59Z" fill="white"/>
</g>
<g opacity="0.7">
<path d="M619.44 214.04C622.847 214.04 625.609 211.278 625.609 207.87C625.609 204.462 622.847 201.7 619.44 201.7C616.032 201.7 613.27 204.462 613.27 207.87C613.27 211.278 616.032 214.04 619.44 214.04Z" fill="white"/>
</g>
<g opacity="0.7">
<path d="M999.19 684.87C1002.49 684.87 1005.16 682.197 1005.16 678.9C1005.16 675.603 1002.49 672.93 999.19 672.93C995.892 672.93 993.219 675.603 993.219 678.9C993.219 682.197 995.892 684.87 999.19 684.87Z" fill="white"/>
</g>
<g opacity="0.7">
<path d="M1205.67 935.41C1209.2 935.41 1212.06 932.549 1212.06 929.02C1212.06 925.491 1209.2 922.63 1205.67 922.63C1202.14 922.63 1199.28 925.491 1199.28 929.02C1199.28 932.549 1202.14 935.41 1205.67 935.41Z" fill="white"/>
</g>
<g opacity="0.7">
<path d="M1207.99 650.92C1211.52 650.92 1214.38 648.059 1214.38 644.53C1214.38 641.001 1211.52 638.14 1207.99 638.14C1204.46 638.14 1201.6 641.001 1201.6 644.53C1201.6 648.059 1204.46 650.92 1207.99 650.92Z" fill="white"/>
</g>
<g opacity="0.7">
<path d="M1343.79 538.47C1348.78 538.47 1352.82 534.427 1352.82 529.44C1352.82 524.453 1348.78 520.41 1343.79 520.41C1338.8 520.41 1334.76 524.453 1334.76 529.44C1334.76 534.427 1338.8 538.47 1343.79 538.47Z" fill="#E19653"/>
</g>
<g opacity="0.7">
<path d="M1343.79 535.83C1347.32 535.83 1350.18 532.969 1350.18 529.44C1350.18 525.911 1347.32 523.05 1343.79 523.05C1340.26 523.05 1337.4 525.911 1337.4 529.44C1337.4 532.969 1340.26 535.83 1343.79 535.83Z" fill="white"/>
</g>
<g opacity="0.7">
<path d="M774.53 100.42C778.059 100.42 780.92 97.559 780.92 94.0299C780.92 90.5008 778.059 87.6399 774.53 87.6399C771.001 87.6399 768.14 90.5008 768.14 94.0299C768.14 97.559 771.001 100.42 774.53 100.42Z" fill="white"/>
</g>
<g filter="url(#filter1_f_75_302)">
<ellipse cx="717.789" cy="470.115" rx="648.265" ry="264.954" fill="black" fill-opacity="0.6"/>
</g>
</g>
<defs>
<filter id="filter0_i_75_302" x="82.7495" y="85" width="1270.08" height="857.06" filterUnits="userSpaceOnUse" color-interpolation-filters="sRGB">
<feFlood flood-opacity="0" result="BackgroundImageFix"/>
<feBlend mode="normal" in="SourceGraphic" in2="BackgroundImageFix" result="shape"/>
<feColorMatrix in="SourceAlpha" type="matrix" values="0 0 0 0 0 0 0 0 0 0 0 0 0 0 0 0 0 0 127 0" result="hardAlpha"/>
<feOffset dy="4"/>
<feGaussianBlur stdDeviation="2"/>
<feComposite in2="hardAlpha" operator="arithmetic" k2="-1" k3="1"/>
<feColorMatrix type="matrix" values="0 0 0 0 0 0 0 0 0 0 0 0 0 0 0 0 0 0 0.25 0"/>
<feBlend mode="normal" in2="shape" result="effect1_innerShadow_75_302"/>
</filter>
<filter id="filter1_f_75_302" x="14.2242" y="149.86" width="1407.13" height="640.509" filterUnits="userSpaceOnUse" color-interpolation-filters="sRGB">
<feFlood flood-opacity="0" result="BackgroundImageFix"/>
<feBlend mode="normal" in="SourceGraphic" in2="BackgroundImageFix" result="shape"/>
<feGaussianBlur stdDeviation="27.65" result="effect1_foregroundBlur_75_302"/>
</filter>
<clipPath id="clip0_75_302">
<rect width="1270.08" height="853.06" fill="white" transform="translate(82.7495 85)"/>
</clipPath>
</defs>
</svg>
